<?xml version="1.0" encoding="utf-8" standalone="no"?>
<!DOCTYPE svg PUBLIC "-//W3C//DTD SVG 1.1//EN"
  "http://www.w3.org/Graphics/SVG/1.1/DTD/svg11.dtd">
<svg xmlns:xlink="http://www.w3.org/1999/xlink" width="504pt" height="288pt" viewBox="0 0 504 288" xmlns="http://www.w3.org/2000/svg" version="1.1">
 <metadata>
  <rdf:RDF xmlns:dc="http://purl.org/dc/elements/1.1/" xmlns:cc="http://creativecommons.org/ns#" xmlns:rdf="http://www.w3.org/1999/02/22-rdf-syntax-ns#">
   <cc:Work>
    <dc:type rdf:resource="http://purl.org/dc/dcmitype/StillImage"/>
    <dc:date>2026-01-19T13:48:05.414930</dc:date>
    <dc:format>image/svg+xml</dc:format>
    <dc:creator>
     <cc:Agent>
      <dc:title>Matplotlib v3.10.8, https://matplotlib.org/</dc:title>
     </cc:Agent>
    </dc:creator>
   </cc:Work>
  </rdf:RDF>
 </metadata>
 <defs>
  <style type="text/css">*{stroke-linejoin: round; stroke-linecap: butt}</style>
 </defs>
 <g id="figure_1">
  <g id="patch_1">
   <path d="M 0 288 
L 504 288 
L 504 0 
L 0 0 
z
" style="fill: #ffffff"/>
  </g>
  <g id="axes_1">
   <g id="patch_2">
    <path d="M 63.83 245.5 
L 493.2 245.5 
L 493.2 26.7 
L 63.83 26.7 
z
" style="fill: #ffffff"/>
   </g>
   <g id="matplotlib.axis_1">
    <g id="xtick_1">
     <g id="line2d_1">
      <path d="M 83.344731 245.5 
L 83.344731 26.7 
" clip-path="url(#p85fea60c0f)" style="fill: none; stroke: #b0b0b0; stroke-opacity: 0.5; stroke-width: 0.4; stroke-linecap: square"/>
     </g>
     <g id="line2d_2">
      <defs>
       <path id="m3fac1b4471" d="M 0 0 
L 0 3.5 
" style="stroke: #000000; stroke-width: 0.8"/>
      </defs>
      <g>
       <use xlink:href="#m3fac1b4471" x="83.344731" y="245.5" style="stroke: #000000; stroke-width: 0.8"/>
      </g>
     </g>
     <g id="text_1">
      <!-- 0 -->
      <g transform="translate(80.163481 260.098437) scale(0.1 -0.1)">
       <defs>
        <path id="DejaVuSans-30" d="M 2034 4250 
Q 1547 4250 1301 3770 
Q 1056 3291 1056 2328 
Q 1056 1369 1301 889 
Q 1547 409 2034 409 
Q 2525 409 2770 889 
Q 3016 1369 3016 2328 
Q 3016 3291 2770 3770 
Q 2525 4250 2034 4250 
z
M 2034 4750 
Q 2819 4750 3233 4129 
Q 3647 3509 3647 2328 
Q 3647 1150 3233 529 
Q 2819 -91 2034 -91 
Q 1250 -91 836 529 
Q 422 1150 422 2328 
Q 422 3509 836 4129 
Q 1250 4750 2034 4750 
z
" transform="scale(0.015625)"/>
       </defs>
       <use xlink:href="#DejaVuSans-30"/>
      </g>
     </g>
    </g>
    <g id="xtick_2">
     <g id="line2d_3">
      <path d="M 135.51674 245.5 
L 135.51674 26.7 
" clip-path="url(#p85fea60c0f)" style="fill: none; stroke: #b0b0b0; stroke-opacity: 0.5; stroke-width: 0.4; stroke-linecap: square"/>
     </g>
     <g id="line2d_4">
      <g>
       <use xlink:href="#m3fac1b4471" x="135.51674" y="245.5" style="stroke: #000000; stroke-width: 0.8"/>
      </g>
     </g>
     <g id="text_2">
      <!-- 25000 -->
      <g transform="translate(119.61049 260.098437) scale(0.1 -0.1)">
       <defs>
        <path id="DejaVuSans-32" d="M 1228 531 
L 3431 531 
L 3431 0 
L 469 0 
L 469 531 
Q 828 903 1448 1529 
Q 2069 2156 2228 2338 
Q 2531 2678 2651 2914 
Q 2772 3150 2772 3378 
Q 2772 3750 2511 3984 
Q 2250 4219 1831 4219 
Q 1534 4219 1204 4116 
Q 875 4013 500 3803 
L 500 4441 
Q 881 4594 1212 4672 
Q 1544 4750 1819 4750 
Q 2544 4750 2975 4387 
Q 3406 4025 3406 3419 
Q 3406 3131 3298 2873 
Q 3191 2616 2906 2266 
Q 2828 2175 2409 1742 
Q 1991 1309 1228 531 
z
" transform="scale(0.015625)"/>
        <path id="DejaVuSans-35" d="M 691 4666 
L 3169 4666 
L 3169 4134 
L 1269 4134 
L 1269 2991 
Q 1406 3038 1543 3061 
Q 1681 3084 1819 3084 
Q 2600 3084 3056 2656 
Q 3513 2228 3513 1497 
Q 3513 744 3044 326 
Q 2575 -91 1722 -91 
Q 1428 -91 1123 -41 
Q 819 9 494 109 
L 494 744 
Q 775 591 1075 516 
Q 1375 441 1709 441 
Q 2250 441 2565 725 
Q 2881 1009 2881 1497 
Q 2881 1984 2565 2268 
Q 2250 2553 1709 2553 
Q 1456 2553 1204 2497 
Q 953 2441 691 2322 
L 691 4666 
z
" transform="scale(0.015625)"/>
       </defs>
       <use xlink:href="#DejaVuSans-32"/>
       <use xlink:href="#DejaVuSans-35" transform="translate(63.623047 0)"/>
       <use xlink:href="#DejaVuSans-30" transform="translate(127.246094 0)"/>
       <use xlink:href="#DejaVuSans-30" transform="translate(190.869141 0)"/>
       <use xlink:href="#DejaVuSans-30" transform="translate(254.492188 0)"/>
      </g>
     </g>
    </g>
    <g id="xtick_3">
     <g id="line2d_5">
      <path d="M 187.688749 245.5 
L 187.688749 26.7 
" clip-path="url(#p85fea60c0f)" style="fill: none; stroke: #b0b0b0; stroke-opacity: 0.5; stroke-width: 0.4; stroke-linecap: square"/>
     </g>
     <g id="line2d_6">
      <g>
       <use xlink:href="#m3fac1b4471" x="187.688749" y="245.5" style="stroke: #000000; stroke-width: 0.8"/>
      </g>
     </g>
     <g id="text_3">
      <!-- 50000 -->
      <g transform="translate(171.782499 260.098437) scale(0.1 -0.1)">
       <use xlink:href="#DejaVuSans-35"/>
       <use xlink:href="#DejaVuSans-30" transform="translate(63.623047 0)"/>
       <use xlink:href="#DejaVuSans-30" transform="translate(127.246094 0)"/>
       <use xlink:href="#DejaVuSans-30" transform="translate(190.869141 0)"/>
       <use xlink:href="#DejaVuSans-30" transform="translate(254.492188 0)"/>
      </g>
     </g>
    </g>
    <g id="xtick_4">
     <g id="line2d_7">
      <path d="M 239.860758 245.5 
L 239.860758 26.7 
" clip-path="url(#p85fea60c0f)" style="fill: none; stroke: #b0b0b0; stroke-opacity: 0.5; stroke-width: 0.4; stroke-linecap: square"/>
     </g>
     <g id="line2d_8">
      <g>
       <use xlink:href="#m3fac1b4471" x="239.860758" y="245.5" style="stroke: #000000; stroke-width: 0.8"/>
      </g>
     </g>
     <g id="text_4">
      <!-- 75000 -->
      <g transform="translate(223.954508 260.098437) scale(0.1 -0.1)">
       <defs>
        <path id="DejaVuSans-37" d="M 525 4666 
L 3525 4666 
L 3525 4397 
L 1831 0 
L 1172 0 
L 2766 4134 
L 525 4134 
L 525 4666 
z
" transform="scale(0.015625)"/>
       </defs>
       <use xlink:href="#DejaVuSans-37"/>
       <use xlink:href="#DejaVuSans-35" transform="translate(63.623047 0)"/>
       <use xlink:href="#DejaVuSans-30" transform="translate(127.246094 0)"/>
       <use xlink:href="#DejaVuSans-30" transform="translate(190.869141 0)"/>
       <use xlink:href="#DejaVuSans-30" transform="translate(254.492188 0)"/>
      </g>
     </g>
    </g>
    <g id="xtick_5">
     <g id="line2d_9">
      <path d="M 292.032768 245.5 
L 292.032768 26.7 
" clip-path="url(#p85fea60c0f)" style="fill: none; stroke: #b0b0b0; stroke-opacity: 0.5; stroke-width: 0.4; stroke-linecap: square"/>
     </g>
     <g id="line2d_10">
      <g>
       <use xlink:href="#m3fac1b4471" x="292.032768" y="245.5" style="stroke: #000000; stroke-width: 0.8"/>
      </g>
     </g>
     <g id="text_5">
      <!-- 100000 -->
      <g transform="translate(272.945268 260.098437) scale(0.1 -0.1)">
       <defs>
        <path id="DejaVuSans-31" d="M 794 531 
L 1825 531 
L 1825 4091 
L 703 3866 
L 703 4441 
L 1819 4666 
L 2450 4666 
L 2450 531 
L 3481 531 
L 3481 0 
L 794 0 
L 794 531 
z
" transform="scale(0.015625)"/>
       </defs>
       <use xlink:href="#DejaVuSans-31"/>
       <use xlink:href="#DejaVuSans-30" transform="translate(63.623047 0)"/>
       <use xlink:href="#DejaVuSans-30" transform="translate(127.246094 0)"/>
       <use xlink:href="#DejaVuSans-30" transform="translate(190.869141 0)"/>
       <use xlink:href="#DejaVuSans-30" transform="translate(254.492188 0)"/>
       <use xlink:href="#DejaVuSans-30" transform="translate(318.115234 0)"/>
      </g>
     </g>
    </g>
    <g id="xtick_6">
     <g id="line2d_11">
      <path d="M 344.204777 245.5 
L 344.204777 26.7 
" clip-path="url(#p85fea60c0f)" style="fill: none; stroke: #b0b0b0; stroke-opacity: 0.5; stroke-width: 0.4; stroke-linecap: square"/>
     </g>
     <g id="line2d_12">
      <g>
       <use xlink:href="#m3fac1b4471" x="344.204777" y="245.5" style="stroke: #000000; stroke-width: 0.8"/>
      </g>
     </g>
     <g id="text_6">
      <!-- 125000 -->
      <g transform="translate(325.117277 260.098437) scale(0.1 -0.1)">
       <use xlink:href="#DejaVuSans-31"/>
       <use xlink:href="#DejaVuSans-32" transform="translate(63.623047 0)"/>
       <use xlink:href="#DejaVuSans-35" transform="translate(127.246094 0)"/>
       <use xlink:href="#DejaVuSans-30" transform="translate(190.869141 0)"/>
       <use xlink:href="#DejaVuSans-30" transform="translate(254.492188 0)"/>
       <use xlink:href="#DejaVuSans-30" transform="translate(318.115234 0)"/>
      </g>
     </g>
    </g>
    <g id="xtick_7">
     <g id="line2d_13">
      <path d="M 396.376786 245.5 
L 396.376786 26.7 
" clip-path="url(#p85fea60c0f)" style="fill: none; stroke: #b0b0b0; stroke-opacity: 0.5; stroke-width: 0.4; stroke-linecap: square"/>
     </g>
     <g id="line2d_14">
      <g>
       <use xlink:href="#m3fac1b4471" x="396.376786" y="245.5" style="stroke: #000000; stroke-width: 0.8"/>
      </g>
     </g>
     <g id="text_7">
      <!-- 150000 -->
      <g transform="translate(377.289286 260.098437) scale(0.1 -0.1)">
       <use xlink:href="#DejaVuSans-31"/>
       <use xlink:href="#DejaVuSans-35" transform="translate(63.623047 0)"/>
       <use xlink:href="#DejaVuSans-30" transform="translate(127.246094 0)"/>
       <use xlink:href="#DejaVuSans-30" transform="translate(190.869141 0)"/>
       <use xlink:href="#DejaVuSans-30" transform="translate(254.492188 0)"/>
       <use xlink:href="#DejaVuSans-30" transform="translate(318.115234 0)"/>
      </g>
     </g>
    </g>
    <g id="xtick_8">
     <g id="line2d_15">
      <path d="M 448.548795 245.5 
L 448.548795 26.7 
" clip-path="url(#p85fea60c0f)" style="fill: none; stroke: #b0b0b0; stroke-opacity: 0.5; stroke-width: 0.4; stroke-linecap: square"/>
     </g>
     <g id="line2d_16">
      <g>
       <use xlink:href="#m3fac1b4471" x="448.548795" y="245.5" style="stroke: #000000; stroke-width: 0.8"/>
      </g>
     </g>
     <g id="text_8">
      <!-- 175000 -->
      <g transform="translate(429.461295 260.098437) scale(0.1 -0.1)">
       <use xlink:href="#DejaVuSans-31"/>
       <use xlink:href="#DejaVuSans-37" transform="translate(63.623047 0)"/>
       <use xlink:href="#DejaVuSans-35" transform="translate(127.246094 0)"/>
       <use xlink:href="#DejaVuSans-30" transform="translate(190.869141 0)"/>
       <use xlink:href="#DejaVuSans-30" transform="translate(254.492188 0)"/>
       <use xlink:href="#DejaVuSans-30" transform="translate(318.115234 0)"/>
      </g>
     </g>
    </g>
    <g id="text_9">
     <!-- Poradie diela (podľa počtu zobrazení) -->
     <g transform="translate(184.817344 274.176562) scale(0.1 -0.1)">
      <defs>
       <path id="DejaVuSans-50" d="M 1259 4147 
L 1259 2394 
L 2053 2394 
Q 2494 2394 2734 2622 
Q 2975 2850 2975 3272 
Q 2975 3691 2734 3919 
Q 2494 4147 2053 4147 
L 1259 4147 
z
M 628 4666 
L 2053 4666 
Q 2838 4666 3239 4311 
Q 3641 3956 3641 3272 
Q 3641 2581 3239 2228 
Q 2838 1875 2053 1875 
L 1259 1875 
L 1259 0 
L 628 0 
L 628 4666 
z
" transform="scale(0.015625)"/>
       <path id="DejaVuSans-6f" d="M 1959 3097 
Q 1497 3097 1228 2736 
Q 959 2375 959 1747 
Q 959 1119 1226 758 
Q 1494 397 1959 397 
Q 2419 397 2687 759 
Q 2956 1122 2956 1747 
Q 2956 2369 2687 2733 
Q 2419 3097 1959 3097 
z
M 1959 3584 
Q 2709 3584 3137 3096 
Q 3566 2609 3566 1747 
Q 3566 888 3137 398 
Q 2709 -91 1959 -91 
Q 1206 -91 779 398 
Q 353 888 353 1747 
Q 353 2609 779 3096 
Q 1206 3584 1959 3584 
z
" transform="scale(0.015625)"/>
       <path id="DejaVuSans-72" d="M 2631 2963 
Q 2534 3019 2420 3045 
Q 2306 3072 2169 3072 
Q 1681 3072 1420 2755 
Q 1159 2438 1159 1844 
L 1159 0 
L 581 0 
L 581 3500 
L 1159 3500 
L 1159 2956 
Q 1341 3275 1631 3429 
Q 1922 3584 2338 3584 
Q 2397 3584 2469 3576 
Q 2541 3569 2628 3553 
L 2631 2963 
z
" transform="scale(0.015625)"/>
       <path id="DejaVuSans-61" d="M 2194 1759 
Q 1497 1759 1228 1600 
Q 959 1441 959 1056 
Q 959 750 1161 570 
Q 1363 391 1709 391 
Q 2188 391 2477 730 
Q 2766 1069 2766 1631 
L 2766 1759 
L 2194 1759 
z
M 3341 1997 
L 3341 0 
L 2766 0 
L 2766 531 
Q 2569 213 2275 61 
Q 1981 -91 1556 -91 
Q 1019 -91 701 211 
Q 384 513 384 1019 
Q 384 1609 779 1909 
Q 1175 2209 1959 2209 
L 2766 2209 
L 2766 2266 
Q 2766 2663 2505 2880 
Q 2244 3097 1772 3097 
Q 1472 3097 1187 3025 
Q 903 2953 641 2809 
L 641 3341 
Q 956 3463 1253 3523 
Q 1550 3584 1831 3584 
Q 2591 3584 2966 3190 
Q 3341 2797 3341 1997 
z
" transform="scale(0.015625)"/>
       <path id="DejaVuSans-64" d="M 2906 2969 
L 2906 4863 
L 3481 4863 
L 3481 0 
L 2906 0 
L 2906 525 
Q 2725 213 2448 61 
Q 2172 -91 1784 -91 
Q 1150 -91 751 415 
Q 353 922 353 1747 
Q 353 2572 751 3078 
Q 1150 3584 1784 3584 
Q 2172 3584 2448 3432 
Q 2725 3281 2906 2969 
z
M 947 1747 
Q 947 1113 1208 752 
Q 1469 391 1925 391 
Q 2381 391 2643 752 
Q 2906 1113 2906 1747 
Q 2906 2381 2643 2742 
Q 2381 3103 1925 3103 
Q 1469 3103 1208 2742 
Q 947 2381 947 1747 
z
" transform="scale(0.015625)"/>
       <path id="DejaVuSans-69" d="M 603 3500 
L 1178 3500 
L 1178 0 
L 603 0 
L 603 3500 
z
M 603 4863 
L 1178 4863 
L 1178 4134 
L 603 4134 
L 603 4863 
z
" transform="scale(0.015625)"/>
       <path id="DejaVuSans-65" d="M 3597 1894 
L 3597 1613 
L 953 1613 
Q 991 1019 1311 708 
Q 1631 397 2203 397 
Q 2534 397 2845 478 
Q 3156 559 3463 722 
L 3463 178 
Q 3153 47 2828 -22 
Q 2503 -91 2169 -91 
Q 1331 -91 842 396 
Q 353 884 353 1716 
Q 353 2575 817 3079 
Q 1281 3584 2069 3584 
Q 2775 3584 3186 3129 
Q 3597 2675 3597 1894 
z
M 3022 2063 
Q 3016 2534 2758 2815 
Q 2500 3097 2075 3097 
Q 1594 3097 1305 2825 
Q 1016 2553 972 2059 
L 3022 2063 
z
" transform="scale(0.015625)"/>
       <path id="DejaVuSans-20" transform="scale(0.015625)"/>
       <path id="DejaVuSans-6c" d="M 603 4863 
L 1178 4863 
L 1178 0 
L 603 0 
L 603 4863 
z
" transform="scale(0.015625)"/>
       <path id="DejaVuSans-28" d="M 1984 4856 
Q 1566 4138 1362 3434 
Q 1159 2731 1159 2009 
Q 1159 1288 1364 580 
Q 1569 -128 1984 -844 
L 1484 -844 
Q 1016 -109 783 600 
Q 550 1309 550 2009 
Q 550 2706 781 3412 
Q 1013 4119 1484 4856 
L 1984 4856 
z
" transform="scale(0.015625)"/>
       <path id="DejaVuSans-70" d="M 1159 525 
L 1159 -1331 
L 581 -1331 
L 581 3500 
L 1159 3500 
L 1159 2969 
Q 1341 3281 1617 3432 
Q 1894 3584 2278 3584 
Q 2916 3584 3314 3078 
Q 3713 2572 3713 1747 
Q 3713 922 3314 415 
Q 2916 -91 2278 -91 
Q 1894 -91 1617 61 
Q 1341 213 1159 525 
z
M 3116 1747 
Q 3116 2381 2855 2742 
Q 2594 3103 2138 3103 
Q 1681 3103 1420 2742 
Q 1159 2381 1159 1747 
Q 1159 1113 1420 752 
Q 1681 391 2138 391 
Q 2594 391 2855 752 
Q 3116 1113 3116 1747 
z
" transform="scale(0.015625)"/>
       <path id="DejaVuSans-13e" d="M 1776 4856 
L 2398 4856 
L 2032 3681 
L 1554 3681 
L 1776 4856 
z
M 603 4863 
L 1178 4863 
L 1178 0 
L 603 0 
L 603 4863 
z
" transform="scale(0.015625)"/>
       <path id="DejaVuSans-10d" d="M 3122 3366 
L 3122 2828 
Q 2878 2963 2633 3030 
Q 2388 3097 2138 3097 
Q 1578 3097 1268 2742 
Q 959 2388 959 1747 
Q 959 1106 1268 751 
Q 1578 397 2138 397 
Q 2388 397 2633 464 
Q 2878 531 3122 666 
L 3122 134 
Q 2881 22 2623 -34 
Q 2366 -91 2075 -91 
Q 1284 -91 818 406 
Q 353 903 353 1747 
Q 353 2603 823 3093 
Q 1294 3584 2113 3584 
Q 2378 3584 2631 3529 
Q 2884 3475 3122 3366 
z
M 1801 3944 
L 1035 5119 
L 1470 5119 
L 2032 4353 
L 2595 5119 
L 3029 5119 
L 2263 3944 
L 1801 3944 
z
" transform="scale(0.015625)"/>
       <path id="DejaVuSans-74" d="M 1172 4494 
L 1172 3500 
L 2356 3500 
L 2356 3053 
L 1172 3053 
L 1172 1153 
Q 1172 725 1289 603 
Q 1406 481 1766 481 
L 2356 481 
L 2356 0 
L 1766 0 
Q 1100 0 847 248 
Q 594 497 594 1153 
L 594 3053 
L 172 3053 
L 172 3500 
L 594 3500 
L 594 4494 
L 1172 4494 
z
" transform="scale(0.015625)"/>
       <path id="DejaVuSans-75" d="M 544 1381 
L 544 3500 
L 1119 3500 
L 1119 1403 
Q 1119 906 1312 657 
Q 1506 409 1894 409 
Q 2359 409 2629 706 
Q 2900 1003 2900 1516 
L 2900 3500 
L 3475 3500 
L 3475 0 
L 2900 0 
L 2900 538 
Q 2691 219 2414 64 
Q 2138 -91 1772 -91 
Q 1169 -91 856 284 
Q 544 659 544 1381 
z
M 1991 3584 
L 1991 3584 
z
" transform="scale(0.015625)"/>
       <path id="DejaVuSans-7a" d="M 353 3500 
L 3084 3500 
L 3084 2975 
L 922 459 
L 3084 459 
L 3084 0 
L 275 0 
L 275 525 
L 2438 3041 
L 353 3041 
L 353 3500 
z
" transform="scale(0.015625)"/>
       <path id="DejaVuSans-62" d="M 3116 1747 
Q 3116 2381 2855 2742 
Q 2594 3103 2138 3103 
Q 1681 3103 1420 2742 
Q 1159 2381 1159 1747 
Q 1159 1113 1420 752 
Q 1681 391 2138 391 
Q 2594 391 2855 752 
Q 3116 1113 3116 1747 
z
M 1159 2969 
Q 1341 3281 1617 3432 
Q 1894 3584 2278 3584 
Q 2916 3584 3314 3078 
Q 3713 2572 3713 1747 
Q 3713 922 3314 415 
Q 2916 -91 2278 -91 
Q 1894 -91 1617 61 
Q 1341 213 1159 525 
L 1159 0 
L 581 0 
L 581 4863 
L 1159 4863 
L 1159 2969 
z
" transform="scale(0.015625)"/>
       <path id="DejaVuSans-6e" d="M 3513 2113 
L 3513 0 
L 2938 0 
L 2938 2094 
Q 2938 2591 2744 2837 
Q 2550 3084 2163 3084 
Q 1697 3084 1428 2787 
Q 1159 2491 1159 1978 
L 1159 0 
L 581 0 
L 581 3500 
L 1159 3500 
L 1159 2956 
Q 1366 3272 1645 3428 
Q 1925 3584 2291 3584 
Q 2894 3584 3203 3211 
Q 3513 2838 3513 2113 
z
" transform="scale(0.015625)"/>
       <path id="DejaVuSans-ed" d="M 1322 5119 
L 1944 5119 
L 926 3944 
L 447 3944 
L 1322 5119 
z
M 603 3500 
L 1178 3500 
L 1178 0 
L 603 0 
L 603 3500 
z
M 891 3584 
L 891 3584 
z
" transform="scale(0.015625)"/>
       <path id="DejaVuSans-29" d="M 513 4856 
L 1013 4856 
Q 1481 4119 1714 3412 
Q 1947 2706 1947 2009 
Q 1947 1309 1714 600 
Q 1481 -109 1013 -844 
L 513 -844 
Q 928 -128 1133 580 
Q 1338 1288 1338 2009 
Q 1338 2731 1133 3434 
Q 928 4138 513 4856 
z
" transform="scale(0.015625)"/>
      </defs>
      <use xlink:href="#DejaVuSans-50"/>
      <use xlink:href="#DejaVuSans-6f" transform="translate(56.677734 0)"/>
      <use xlink:href="#DejaVuSans-72" transform="translate(117.859375 0)"/>
      <use xlink:href="#DejaVuSans-61" transform="translate(158.972656 0)"/>
      <use xlink:href="#DejaVuSans-64" transform="translate(220.251953 0)"/>
      <use xlink:href="#DejaVuSans-69" transform="translate(283.728516 0)"/>
      <use xlink:href="#DejaVuSans-65" transform="translate(311.511719 0)"/>
      <use xlink:href="#DejaVuSans-20" transform="translate(373.035156 0)"/>
      <use xlink:href="#DejaVuSans-64" transform="translate(404.822266 0)"/>
      <use xlink:href="#DejaVuSans-69" transform="translate(468.298828 0)"/>
      <use xlink:href="#DejaVuSans-65" transform="translate(496.082031 0)"/>
      <use xlink:href="#DejaVuSans-6c" transform="translate(557.605469 0)"/>
      <use xlink:href="#DejaVuSans-61" transform="translate(585.388672 0)"/>
      <use xlink:href="#DejaVuSans-20" transform="translate(646.667969 0)"/>
      <use xlink:href="#DejaVuSans-28" transform="translate(678.455078 0)"/>
      <use xlink:href="#DejaVuSans-70" transform="translate(717.46875 0)"/>
      <use xlink:href="#DejaVuSans-6f" transform="translate(780.945312 0)"/>
      <use xlink:href="#DejaVuSans-64" transform="translate(842.126953 0)"/>
      <use xlink:href="#DejaVuSans-13e" transform="translate(905.603516 0)"/>
      <use xlink:href="#DejaVuSans-61" transform="translate(943.103516 0)"/>
      <use xlink:href="#DejaVuSans-20" transform="translate(1004.382812 0)"/>
      <use xlink:href="#DejaVuSans-70" transform="translate(1036.169922 0)"/>
      <use xlink:href="#DejaVuSans-6f" transform="translate(1099.646484 0)"/>
      <use xlink:href="#DejaVuSans-10d" transform="translate(1160.828125 0)"/>
      <use xlink:href="#DejaVuSans-74" transform="translate(1215.808594 0)"/>
      <use xlink:href="#DejaVuSans-75" transform="translate(1255.017578 0)"/>
      <use xlink:href="#DejaVuSans-20" transform="translate(1318.396484 0)"/>
      <use xlink:href="#DejaVuSans-7a" transform="translate(1350.183594 0)"/>
      <use xlink:href="#DejaVuSans-6f" transform="translate(1402.673828 0)"/>
      <use xlink:href="#DejaVuSans-62" transform="translate(1463.855469 0)"/>
      <use xlink:href="#DejaVuSans-72" transform="translate(1527.332031 0)"/>
      <use xlink:href="#DejaVuSans-61" transform="translate(1568.445312 0)"/>
      <use xlink:href="#DejaVuSans-7a" transform="translate(1629.724609 0)"/>
      <use xlink:href="#DejaVuSans-65" transform="translate(1682.214844 0)"/>
      <use xlink:href="#DejaVuSans-6e" transform="translate(1743.738281 0)"/>
      <use xlink:href="#DejaVuSans-ed" transform="translate(1807.117188 0)"/>
      <use xlink:href="#DejaVuSans-29" transform="translate(1834.900391 0)"/>
     </g>
    </g>
   </g>
   <g id="matplotlib.axis_2">
    <g id="ytick_1">
     <g id="line2d_17">
      <path d="M 63.83 235.578774 
L 493.2 235.578774 
" clip-path="url(#p85fea60c0f)" style="fill: none; stroke: #b0b0b0; stroke-opacity: 0.5; stroke-width: 0.4; stroke-linecap: square"/>
     </g>
     <g id="line2d_18">
      <defs>
       <path id="m54771707a3" d="M 0 0 
L -3.5 0 
" style="stroke: #000000; stroke-width: 0.8"/>
      </defs>
      <g>
       <use xlink:href="#m54771707a3" x="63.83" y="235.578774" style="stroke: #000000; stroke-width: 0.8"/>
      </g>
     </g>
     <g id="text_10">
      <!-- 0 -->
      <g transform="translate(50.4675 239.377993) scale(0.1 -0.1)">
       <use xlink:href="#DejaVuSans-30"/>
      </g>
     </g>
    </g>
    <g id="ytick_2">
     <g id="line2d_19">
      <path d="M 63.83 195.197701 
L 493.2 195.197701 
" clip-path="url(#p85fea60c0f)" style="fill: none; stroke: #b0b0b0; stroke-opacity: 0.5; stroke-width: 0.4; stroke-linecap: square"/>
     </g>
     <g id="line2d_20">
      <g>
       <use xlink:href="#m54771707a3" x="63.83" y="195.197701" style="stroke: #000000; stroke-width: 0.8"/>
      </g>
     </g>
     <g id="text_11">
      <!-- 10000 -->
      <g transform="translate(25.0175 198.99692) scale(0.1 -0.1)">
       <use xlink:href="#DejaVuSans-31"/>
       <use xlink:href="#DejaVuSans-30" transform="translate(63.623047 0)"/>
       <use xlink:href="#DejaVuSans-30" transform="translate(127.246094 0)"/>
       <use xlink:href="#DejaVuSans-30" transform="translate(190.869141 0)"/>
       <use xlink:href="#DejaVuSans-30" transform="translate(254.492188 0)"/>
      </g>
     </g>
    </g>
    <g id="ytick_3">
     <g id="line2d_21">
      <path d="M 63.83 154.816627 
L 493.2 154.816627 
" clip-path="url(#p85fea60c0f)" style="fill: none; stroke: #b0b0b0; stroke-opacity: 0.5; stroke-width: 0.4; stroke-linecap: square"/>
     </g>
     <g id="line2d_22">
      <g>
       <use xlink:href="#m54771707a3" x="63.83" y="154.816627" style="stroke: #000000; stroke-width: 0.8"/>
      </g>
     </g>
     <g id="text_12">
      <!-- 20000 -->
      <g transform="translate(25.0175 158.615846) scale(0.1 -0.1)">
       <use xlink:href="#DejaVuSans-32"/>
       <use xlink:href="#DejaVuSans-30" transform="translate(63.623047 0)"/>
       <use xlink:href="#DejaVuSans-30" transform="translate(127.246094 0)"/>
       <use xlink:href="#DejaVuSans-30" transform="translate(190.869141 0)"/>
       <use xlink:href="#DejaVuSans-30" transform="translate(254.492188 0)"/>
      </g>
     </g>
    </g>
    <g id="ytick_4">
     <g id="line2d_23">
      <path d="M 63.83 114.435554 
L 493.2 114.435554 
" clip-path="url(#p85fea60c0f)" style="fill: none; stroke: #b0b0b0; stroke-opacity: 0.5; stroke-width: 0.4; stroke-linecap: square"/>
     </g>
     <g id="line2d_24">
      <g>
       <use xlink:href="#m54771707a3" x="63.83" y="114.435554" style="stroke: #000000; stroke-width: 0.8"/>
      </g>
     </g>
     <g id="text_13">
      <!-- 30000 -->
      <g transform="translate(25.0175 118.234773) scale(0.1 -0.1)">
       <defs>
        <path id="DejaVuSans-33" d="M 2597 2516 
Q 3050 2419 3304 2112 
Q 3559 1806 3559 1356 
Q 3559 666 3084 287 
Q 2609 -91 1734 -91 
Q 1441 -91 1130 -33 
Q 819 25 488 141 
L 488 750 
Q 750 597 1062 519 
Q 1375 441 1716 441 
Q 2309 441 2620 675 
Q 2931 909 2931 1356 
Q 2931 1769 2642 2001 
Q 2353 2234 1838 2234 
L 1294 2234 
L 1294 2753 
L 1863 2753 
Q 2328 2753 2575 2939 
Q 2822 3125 2822 3475 
Q 2822 3834 2567 4026 
Q 2313 4219 1838 4219 
Q 1578 4219 1281 4162 
Q 984 4106 628 3988 
L 628 4550 
Q 988 4650 1302 4700 
Q 1616 4750 1894 4750 
Q 2613 4750 3031 4423 
Q 3450 4097 3450 3541 
Q 3450 3153 3228 2886 
Q 3006 2619 2597 2516 
z
" transform="scale(0.015625)"/>
       </defs>
       <use xlink:href="#DejaVuSans-33"/>
       <use xlink:href="#DejaVuSans-30" transform="translate(63.623047 0)"/>
       <use xlink:href="#DejaVuSans-30" transform="translate(127.246094 0)"/>
       <use xlink:href="#DejaVuSans-30" transform="translate(190.869141 0)"/>
       <use xlink:href="#DejaVuSans-30" transform="translate(254.492188 0)"/>
      </g>
     </g>
    </g>
    <g id="ytick_5">
     <g id="line2d_25">
      <path d="M 63.83 74.054481 
L 493.2 74.054481 
" clip-path="url(#p85fea60c0f)" style="fill: none; stroke: #b0b0b0; stroke-opacity: 0.5; stroke-width: 0.4; stroke-linecap: square"/>
     </g>
     <g id="line2d_26">
      <g>
       <use xlink:href="#m54771707a3" x="63.83" y="74.054481" style="stroke: #000000; stroke-width: 0.8"/>
      </g>
     </g>
     <g id="text_14">
      <!-- 40000 -->
      <g transform="translate(25.0175 77.8537) scale(0.1 -0.1)">
       <defs>
        <path id="DejaVuSans-34" d="M 2419 4116 
L 825 1625 
L 2419 1625 
L 2419 4116 
z
M 2253 4666 
L 3047 4666 
L 3047 1625 
L 3713 1625 
L 3713 1100 
L 3047 1100 
L 3047 0 
L 2419 0 
L 2419 1100 
L 313 1100 
L 313 1709 
L 2253 4666 
z
" transform="scale(0.015625)"/>
       </defs>
       <use xlink:href="#DejaVuSans-34"/>
       <use xlink:href="#DejaVuSans-30" transform="translate(63.623047 0)"/>
       <use xlink:href="#DejaVuSans-30" transform="translate(127.246094 0)"/>
       <use xlink:href="#DejaVuSans-30" transform="translate(190.869141 0)"/>
       <use xlink:href="#DejaVuSans-30" transform="translate(254.492188 0)"/>
      </g>
     </g>
    </g>
    <g id="ytick_6">
     <g id="line2d_27">
      <path d="M 63.83 33.673408 
L 493.2 33.673408 
" clip-path="url(#p85fea60c0f)" style="fill: none; stroke: #b0b0b0; stroke-opacity: 0.5; stroke-width: 0.4; stroke-linecap: square"/>
     </g>
     <g id="line2d_28">
      <g>
       <use xlink:href="#m54771707a3" x="63.83" y="33.673408" style="stroke: #000000; stroke-width: 0.8"/>
      </g>
     </g>
     <g id="text_15">
      <!-- 50000 -->
      <g transform="translate(25.0175 37.472626) scale(0.1 -0.1)">
       <use xlink:href="#DejaVuSans-35"/>
       <use xlink:href="#DejaVuSans-30" transform="translate(63.623047 0)"/>
       <use xlink:href="#DejaVuSans-30" transform="translate(127.246094 0)"/>
       <use xlink:href="#DejaVuSans-30" transform="translate(190.869141 0)"/>
       <use xlink:href="#DejaVuSans-30" transform="translate(254.492188 0)"/>
      </g>
     </g>
    </g>
    <g id="text_16">
     <!-- Počet zobrazení -->
     <g transform="translate(18.937813 175.603906) rotate(-90) scale(0.1 -0.1)">
      <use xlink:href="#DejaVuSans-50"/>
      <use xlink:href="#DejaVuSans-6f" transform="translate(56.677734 0)"/>
      <use xlink:href="#DejaVuSans-10d" transform="translate(117.859375 0)"/>
      <use xlink:href="#DejaVuSans-65" transform="translate(172.839844 0)"/>
      <use xlink:href="#DejaVuSans-74" transform="translate(234.363281 0)"/>
      <use xlink:href="#DejaVuSans-20" transform="translate(273.572266 0)"/>
      <use xlink:href="#DejaVuSans-7a" transform="translate(305.359375 0)"/>
      <use xlink:href="#DejaVuSans-6f" transform="translate(357.849609 0)"/>
      <use xlink:href="#DejaVuSans-62" transform="translate(419.03125 0)"/>
      <use xlink:href="#DejaVuSans-72" transform="translate(482.507812 0)"/>
      <use xlink:href="#DejaVuSans-61" transform="translate(523.621094 0)"/>
      <use xlink:href="#DejaVuSans-7a" transform="translate(584.900391 0)"/>
      <use xlink:href="#DejaVuSans-65" transform="translate(637.390625 0)"/>
      <use xlink:href="#DejaVuSans-6e" transform="translate(698.914062 0)"/>
      <use xlink:href="#DejaVuSans-ed" transform="translate(762.292969 0)"/>
     </g>
    </g>
   </g>
   <g id="line2d_29">
    <path d="M 83.346818 36.645455 
L 83.463683 184.129249 
L 83.714109 197.463079 
L 83.730804 197.681137 
L 84.022967 202.975096 
L 84.056358 203.415249 
L 84.187831 204.982035 
L 84.429909 207.283756 
L 84.444517 207.392785 
L 84.747115 208.991875 
L 84.889023 209.650087 
L 84.918239 209.759116 
L 85.072668 210.296184 
L 85.321007 211.083615 
L 85.35231 211.192644 
L 85.519261 211.741827 
L 85.694559 212.363695 
L 86.011764 213.151126 
L 86.06185 213.256117 
L 86.19541 213.563013 
L 86.224626 213.651851 
L 86.364447 213.982976 
L 86.410359 214.087967 
L 86.65035 214.576578 
L 87.449625 215.884925 
L 87.52684 215.993954 
L 88.010996 216.692546 
L 88.094471 216.801575 
L 88.449241 217.249805 
L 88.549411 217.358834 
L 88.841574 217.685921 
L 88.962613 217.794949 
L 89.135824 218.025122 
L 89.25269 218.13415 
L 89.394597 218.243179 
L 89.488507 218.352208 
L 89.734759 218.590457 
L 89.889188 218.699485 
L 90.099963 218.869086 
L 90.227263 218.978115 
L 90.423429 219.119449 
L 90.567424 219.228478 
L 90.774025 219.390002 
L 90.922194 219.499031 
L 91.110013 219.624212 
L 91.322875 219.733241 
L 91.502347 219.84227 
L 91.669297 219.951299 
L 91.863377 220.088594 
L 92.076239 220.197623 
L 92.251537 220.298576 
L 92.44353 220.407605 
L 92.616741 220.504519 
L 92.844211 220.613548 
L 93.009074 220.69431 
L 93.228197 220.803339 
L 93.395147 220.88814 
L 93.678963 220.997169 
L 93.839653 221.069854 
L 94.071296 221.178883 
L 94.227812 221.243493 
L 94.522063 221.352522 
L 94.678579 221.417132 
L 94.910222 221.526161 
L 95.062565 221.582694 
L 95.338033 221.691723 
L 95.492462 221.752295 
L 95.76793 221.861323 
L 95.924446 221.925933 
L 96.218696 222.034962 
L 96.371039 222.091496 
L 96.709113 222.200525 
L 96.857282 222.248982 
L 97.19953 222.358011 
L 97.353959 222.418582 
L 97.702468 222.527611 
L 97.84855 222.57203 
L 98.220015 222.681059 
L 98.364009 222.72144 
L 98.777212 222.830469 
L 98.919119 222.866812 
L 99.342756 222.975841 
L 99.488838 223.02026 
L 99.90204 223.129289 
L 100.046035 223.16967 
L 100.519757 223.278699 
L 100.655404 223.302928 
L 101.120778 223.411957 
L 101.262686 223.4483 
L 101.734321 223.557329 
L 101.876229 223.593672 
L 102.416731 223.7027 
L 102.556552 223.735005 
L 103.099141 223.844034 
L 103.238962 223.876339 
L 103.890068 223.985368 
L 104.027803 224.013635 
L 104.635085 224.122664 
L 104.770732 224.146892 
L 105.338363 224.255921 
L 105.474011 224.28015 
L 106.087553 224.389179 
L 106.225288 224.417445 
L 106.961956 224.526474 
L 107.09969 224.554741 
L 107.832185 224.66377 
L 107.967833 224.687999 
L 108.687806 224.797028 
L 108.821367 224.817218 
L 109.564296 224.926247 
L 109.69577 224.942399 
L 110.474176 225.051428 
L 110.605649 225.067581 
L 111.444575 225.17661 
L 111.578136 225.1968 
L 112.440017 225.305829 
L 112.573578 225.32602 
L 113.443807 225.435048 
L 113.57528 225.451201 
L 114.54568 225.56023 
L 114.677153 225.576382 
L 115.674682 225.685411 
L 115.806155 225.701564 
L 116.99359 225.810592 
L 117.125064 225.826745 
L 118.314586 225.935774 
L 118.446059 225.951926 
L 119.698187 226.060955 
L 119.827574 226.073069 
L 121.058833 226.182098 
L 121.18822 226.194213 
L 122.477912 226.303242 
L 122.609385 226.319394 
L 123.942902 226.428423 
L 124.072288 226.440537 
L 125.599885 226.549566 
L 125.729271 226.56168 
L 127.21513 226.670709 
L 127.344517 226.682824 
L 128.999413 226.791853 
L 129.126713 226.799929 
L 130.833781 226.908958 
L 130.961081 226.917034 
L 132.699452 227.026063 
L 132.826752 227.034139 
L 134.759203 227.143168 
L 134.886502 227.151244 
L 136.935819 227.260273 
L 137.063119 227.268349 
L 139.12287 227.377378 
L 139.250169 227.385454 
L 141.59791 227.494483 
L 141.725209 227.502559 
L 144.13973 227.611588 
L 144.26703 227.619665 
L 146.765026 227.728693 
L 146.892325 227.73677 
L 149.521794 227.845799 
L 149.649094 227.853875 
L 152.476817 227.962904 
L 152.604117 227.97098 
L 155.461056 228.080009 
L 155.588356 228.088085 
L 158.482859 228.197114 
L 158.610158 228.20519 
L 161.823954 228.314219 
L 161.951254 228.322295 
L 165.217222 228.431324 
L 165.342435 228.435362 
L 168.764918 228.544391 
L 168.890131 228.548429 
L 172.389829 228.657458 
L 172.517129 228.665534 
L 176.446725 228.774563 
L 176.571938 228.778601 
L 180.422232 228.88763 
L 180.549532 228.895706 
L 184.842245 229.004735 
L 184.967457 229.008773 
L 189.391644 229.117802 
L 189.516857 229.12184 
L 193.886784 229.230869 
L 194.011997 229.234907 
L 198.394446 229.343936 
L 198.519659 229.347974 
L 203.350787 229.457003 
L 203.475999 229.461041 
L 208.49286 229.57007 
L 208.618073 229.574108 
L 213.883272 229.683137 
L 214.008485 229.687176 
L 219.486546 229.796204 
L 219.611758 229.800243 
L 225.056429 229.909271 
L 225.181642 229.91331 
L 230.670137 230.022338 
L 230.79535 230.026377 
L 236.469578 230.135405 
L 236.594791 230.139444 
L 242.312843 230.248472 
L 242.438056 230.252511 
L 248.110197 230.361539 
L 248.235409 230.365578 
L 253.80738 230.474606 
L 253.932593 230.478645 
L 259.577604 230.587673 
L 259.702817 230.591712 
L 265.312351 230.70074 
L 265.437564 230.704779 
L 271.086749 230.813807 
L 271.211962 230.817846 
L 276.831931 230.926874 
L 276.957144 230.930913 
L 282.412249 231.039941 
L 282.537462 231.04398 
L 287.921613 231.153008 
L 288.046826 231.157047 
L 293.297417 231.266075 
L 293.42263 231.270114 
L 298.637744 231.379142 
L 298.762957 231.383181 
L 303.913377 231.492209 
L 304.03859 231.496248 
L 309.274573 231.605276 
L 309.399786 231.609315 
L 314.631595 231.718343 
L 314.756808 231.722382 
L 319.91975 231.83141 
L 320.044963 231.835449 
L 325.193297 231.944478 
L 325.318509 231.948516 
L 330.533623 232.057545 
L 330.658836 232.061583 
L 335.709087 232.170612 
L 335.834299 232.17465 
L 340.730121 232.283679 
L 340.855334 232.287717 
L 345.949409 232.396746 
L 346.074621 232.400784 
L 351.091482 232.509813 
L 351.216695 232.513851 
L 356.346247 232.62288 
L 356.471459 232.626918 
L 361.880653 232.735947 
L 362.005866 232.739985 
L 367.667573 232.849014 
L 367.792785 232.853052 
L 373.575531 232.962081 
L 373.700744 232.966119 
L 379.786087 233.075148 
L 379.9113 233.079186 
L 386.046728 233.188215 
L 386.171941 233.192253 
L 392.155027 233.301282 
L 392.28024 233.30532 
L 398.417755 233.414349 
L 398.542967 233.418387 
L 404.250585 233.527416 
L 404.375798 233.531454 
L 409.649345 233.640483 
L 409.774558 233.644521 
L 414.374042 233.75355 
L 414.499255 233.757588 
L 418.643799 233.866617 
L 418.769012 233.870655 
L 422.608872 233.979684 
L 422.734085 233.983722 
L 426.106483 234.092751 
L 426.231696 234.096789 
L 429.727221 234.205818 
L 429.85452 234.213894 
L 433.7549 234.322923 
L 433.880113 234.326961 
L 438.646547 234.43599 
L 438.77176 234.440028 
L 444.948926 234.549057 
L 445.074139 234.553095 
L 452.365699 234.662124 
L 452.490912 234.666162 
L 458.908069 234.775191 
L 459.033282 234.779229 
L 463.071395 234.888258 
L 463.198695 234.896334 
L 465.275141 235.005363 
L 465.404527 235.017477 
L 467.086553 235.126506 
L 467.21594 235.13862 
L 469.313254 235.247649 
L 469.438467 235.251687 
L 471.93855 235.360716 
L 472.06585 235.368793 
L 473.547535 235.477821 
L 473.683182 235.554545 
L 473.683182 235.554545 
" clip-path="url(#p85fea60c0f)" style="fill: none; stroke: #1f77b4; stroke-width: 0.9; stroke-linecap: square"/>
   </g>
   <g id="patch_3">
    <path d="M 63.83 245.5 
L 63.83 26.7 
" style="fill: none; stroke: #000000; stroke-width: 0.8; stroke-linejoin: miter; stroke-linecap: square"/>
   </g>
   <g id="patch_4">
    <path d="M 493.2 245.5 
L 493.2 26.7 
" style="fill: none; stroke: #000000; stroke-width: 0.8; stroke-linejoin: miter; stroke-linecap: square"/>
   </g>
   <g id="patch_5">
    <path d="M 63.83 245.5 
L 493.2 245.5 
" style="fill: none; stroke: #000000; stroke-width: 0.8; stroke-linejoin: miter; stroke-linecap: square"/>
   </g>
   <g id="patch_6">
    <path d="M 63.83 26.7 
L 493.2 26.7 
" style="fill: none; stroke: #000000; stroke-width: 0.8; stroke-linejoin: miter; stroke-linecap: square"/>
   </g>
   <g id="text_17">
    <!-- Long-tail efekt návštevnosti diel -->
    <g transform="translate(182.21875 20.7) scale(0.12 -0.12)">
     <defs>
      <path id="DejaVuSans-4c" d="M 628 4666 
L 1259 4666 
L 1259 531 
L 3531 531 
L 3531 0 
L 628 0 
L 628 4666 
z
" transform="scale(0.015625)"/>
      <path id="DejaVuSans-67" d="M 2906 1791 
Q 2906 2416 2648 2759 
Q 2391 3103 1925 3103 
Q 1463 3103 1205 2759 
Q 947 2416 947 1791 
Q 947 1169 1205 825 
Q 1463 481 1925 481 
Q 2391 481 2648 825 
Q 2906 1169 2906 1791 
z
M 3481 434 
Q 3481 -459 3084 -895 
Q 2688 -1331 1869 -1331 
Q 1566 -1331 1297 -1286 
Q 1028 -1241 775 -1147 
L 775 -588 
Q 1028 -725 1275 -790 
Q 1522 -856 1778 -856 
Q 2344 -856 2625 -561 
Q 2906 -266 2906 331 
L 2906 616 
Q 2728 306 2450 153 
Q 2172 0 1784 0 
Q 1141 0 747 490 
Q 353 981 353 1791 
Q 353 2603 747 3093 
Q 1141 3584 1784 3584 
Q 2172 3584 2450 3431 
Q 2728 3278 2906 2969 
L 2906 3500 
L 3481 3500 
L 3481 434 
z
" transform="scale(0.015625)"/>
      <path id="DejaVuSans-2d" d="M 313 2009 
L 1997 2009 
L 1997 1497 
L 313 1497 
L 313 2009 
z
" transform="scale(0.015625)"/>
      <path id="DejaVuSans-66" d="M 2375 4863 
L 2375 4384 
L 1825 4384 
Q 1516 4384 1395 4259 
Q 1275 4134 1275 3809 
L 1275 3500 
L 2222 3500 
L 2222 3053 
L 1275 3053 
L 1275 0 
L 697 0 
L 697 3053 
L 147 3053 
L 147 3500 
L 697 3500 
L 697 3744 
Q 697 4328 969 4595 
Q 1241 4863 1831 4863 
L 2375 4863 
z
" transform="scale(0.015625)"/>
      <path id="DejaVuSans-6b" d="M 581 4863 
L 1159 4863 
L 1159 1991 
L 2875 3500 
L 3609 3500 
L 1753 1863 
L 3688 0 
L 2938 0 
L 1159 1709 
L 1159 0 
L 581 0 
L 581 4863 
z
" transform="scale(0.015625)"/>
      <path id="DejaVuSans-e1" d="M 2194 1759 
Q 1497 1759 1228 1600 
Q 959 1441 959 1056 
Q 959 750 1161 570 
Q 1363 391 1709 391 
Q 2188 391 2477 730 
Q 2766 1069 2766 1631 
L 2766 1759 
L 2194 1759 
z
M 3341 1997 
L 3341 0 
L 2766 0 
L 2766 531 
Q 2569 213 2275 61 
Q 1981 -91 1556 -91 
Q 1019 -91 701 211 
Q 384 513 384 1019 
Q 384 1609 779 1909 
Q 1175 2209 1959 2209 
L 2766 2209 
L 2766 2266 
Q 2766 2663 2505 2880 
Q 2244 3097 1772 3097 
Q 1472 3097 1187 3025 
Q 903 2953 641 2809 
L 641 3341 
Q 956 3463 1253 3523 
Q 1550 3584 1831 3584 
Q 2591 3584 2966 3190 
Q 3341 2797 3341 1997 
z
M 2290 5119 
L 2912 5119 
L 1894 3944 
L 1415 3944 
L 2290 5119 
z
" transform="scale(0.015625)"/>
      <path id="DejaVuSans-76" d="M 191 3500 
L 800 3500 
L 1894 563 
L 2988 3500 
L 3597 3500 
L 2284 0 
L 1503 0 
L 191 3500 
z
" transform="scale(0.015625)"/>
      <path id="DejaVuSans-161" d="M 2834 3397 
L 2834 2853 
Q 2591 2978 2328 3040 
Q 2066 3103 1784 3103 
Q 1356 3103 1142 2972 
Q 928 2841 928 2578 
Q 928 2378 1081 2264 
Q 1234 2150 1697 2047 
L 1894 2003 
Q 2506 1872 2764 1633 
Q 3022 1394 3022 966 
Q 3022 478 2636 193 
Q 2250 -91 1575 -91 
Q 1294 -91 989 -36 
Q 684 19 347 128 
L 347 722 
Q 666 556 975 473 
Q 1284 391 1588 391 
Q 1994 391 2212 530 
Q 2431 669 2431 922 
Q 2431 1156 2273 1281 
Q 2116 1406 1581 1522 
L 1381 1569 
Q 847 1681 609 1914 
Q 372 2147 372 2553 
Q 372 3047 722 3315 
Q 1072 3584 1716 3584 
Q 2034 3584 2315 3537 
Q 2597 3491 2834 3397 
z
M 1501 3944 
L 736 5119 
L 1170 5119 
L 1733 4353 
L 2295 5119 
L 2729 5119 
L 1964 3944 
L 1501 3944 
z
M 1720 3584 
L 1720 3584 
z
" transform="scale(0.015625)"/>
      <path id="DejaVuSans-73" d="M 2834 3397 
L 2834 2853 
Q 2591 2978 2328 3040 
Q 2066 3103 1784 3103 
Q 1356 3103 1142 2972 
Q 928 2841 928 2578 
Q 928 2378 1081 2264 
Q 1234 2150 1697 2047 
L 1894 2003 
Q 2506 1872 2764 1633 
Q 3022 1394 3022 966 
Q 3022 478 2636 193 
Q 2250 -91 1575 -91 
Q 1294 -91 989 -36 
Q 684 19 347 128 
L 347 722 
Q 666 556 975 473 
Q 1284 391 1588 391 
Q 1994 391 2212 530 
Q 2431 669 2431 922 
Q 2431 1156 2273 1281 
Q 2116 1406 1581 1522 
L 1381 1569 
Q 847 1681 609 1914 
Q 372 2147 372 2553 
Q 372 3047 722 3315 
Q 1072 3584 1716 3584 
Q 2034 3584 2315 3537 
Q 2597 3491 2834 3397 
z
" transform="scale(0.015625)"/>
     </defs>
     <use xlink:href="#DejaVuSans-4c"/>
     <use xlink:href="#DejaVuSans-6f" transform="translate(53.962891 0)"/>
     <use xlink:href="#DejaVuSans-6e" transform="translate(115.144531 0)"/>
     <use xlink:href="#DejaVuSans-67" transform="translate(178.523438 0)"/>
     <use xlink:href="#DejaVuSans-2d" transform="translate(242 0)"/>
     <use xlink:href="#DejaVuSans-74" transform="translate(278.083984 0)"/>
     <use xlink:href="#DejaVuSans-61" transform="translate(317.292969 0)"/>
     <use xlink:href="#DejaVuSans-69" transform="translate(378.572266 0)"/>
     <use xlink:href="#DejaVuSans-6c" transform="translate(406.355469 0)"/>
     <use xlink:href="#DejaVuSans-20" transform="translate(434.138672 0)"/>
     <use xlink:href="#DejaVuSans-65" transform="translate(465.925781 0)"/>
     <use xlink:href="#DejaVuSans-66" transform="translate(527.449219 0)"/>
     <use xlink:href="#DejaVuSans-65" transform="translate(562.654297 0)"/>
     <use xlink:href="#DejaVuSans-6b" transform="translate(624.177734 0)"/>
     <use xlink:href="#DejaVuSans-74" transform="translate(682.087891 0)"/>
     <use xlink:href="#DejaVuSans-20" transform="translate(721.296875 0)"/>
     <use xlink:href="#DejaVuSans-6e" transform="translate(753.083984 0)"/>
     <use xlink:href="#DejaVuSans-e1" transform="translate(816.462891 0)"/>
     <use xlink:href="#DejaVuSans-76" transform="translate(877.742188 0)"/>
     <use xlink:href="#DejaVuSans-161" transform="translate(936.921875 0)"/>
     <use xlink:href="#DejaVuSans-74" transform="translate(989.021484 0)"/>
     <use xlink:href="#DejaVuSans-65" transform="translate(1028.230469 0)"/>
     <use xlink:href="#DejaVuSans-76" transform="translate(1089.753906 0)"/>
     <use xlink:href="#DejaVuSans-6e" transform="translate(1148.933594 0)"/>
     <use xlink:href="#DejaVuSans-6f" transform="translate(1212.3125 0)"/>
     <use xlink:href="#DejaVuSans-73" transform="translate(1273.494141 0)"/>
     <use xlink:href="#DejaVuSans-74" transform="translate(1325.59375 0)"/>
     <use xlink:href="#DejaVuSans-69" transform="translate(1364.802734 0)"/>
     <use xlink:href="#DejaVuSans-20" transform="translate(1392.585938 0)"/>
     <use xlink:href="#DejaVuSans-64" transform="translate(1424.373047 0)"/>
     <use xlink:href="#DejaVuSans-69" transform="translate(1487.849609 0)"/>
     <use xlink:href="#DejaVuSans-65" transform="translate(1515.632812 0)"/>
     <use xlink:href="#DejaVuSans-6c" transform="translate(1577.15625 0)"/>
    </g>
   </g>
  </g>
 </g>
 <defs>
  <clipPath id="p85fea60c0f">
   <rect x="63.83" y="26.7" width="429.37" height="218.8"/>
  </clipPath>
 </defs>
</svg>
