<?xml version="1.0" encoding="utf-8" standalone="no"?>
<!DOCTYPE svg PUBLIC "-//W3C//DTD SVG 1.1//EN"
  "http://www.w3.org/Graphics/SVG/1.1/DTD/svg11.dtd">
<svg xmlns:xlink="http://www.w3.org/1999/xlink" width="662.4pt" height="259.69625pt" viewBox="0 0 662.4 259.69625" xmlns="http://www.w3.org/2000/svg" version="1.1">
 <metadata>
  <rdf:RDF xmlns:dc="http://purl.org/dc/elements/1.1/" xmlns:cc="http://creativecommons.org/ns#" xmlns:rdf="http://www.w3.org/1999/02/22-rdf-syntax-ns#">
   <cc:Work>
    <dc:type rdf:resource="http://purl.org/dc/dcmitype/StillImage"/>
    <dc:date>2026-01-19T16:32:21.241094</dc:date>
    <dc:format>image/svg+xml</dc:format>
    <dc:creator>
     <cc:Agent>
      <dc:title>Matplotlib v3.7.5, https://matplotlib.org/</dc:title>
     </cc:Agent>
    </dc:creator>
   </cc:Work>
  </rdf:RDF>
 </metadata>
 <defs>
  <style type="text/css">*{stroke-linejoin: round; stroke-linecap: butt}</style>
 </defs>
 <g id="figure_1">
  <g id="patch_1">
   <path d="M 0 259.69625 
L 662.4 259.69625 
L 662.4 0 
L 0 0 
z
" style="fill: #ffffff"/>
  </g>
  <g id="axes_1">
   <g id="patch_2">
    <path d="M 22.32 125.77625 
L 82.8 125.77625 
L 82.8 68.17625 
L 22.32 68.17625 
L 22.32 125.77625 
z
" clip-path="url(#p6f2a64011f)" style="fill: none; stroke: #000000; stroke-linejoin: miter"/>
   </g>
   <g id="patch_3">
    <path d="M 94.896 125.77625 
L 155.376 125.77625 
L 155.376 68.17625 
L 94.896 68.17625 
L 94.896 125.77625 
z
" clip-path="url(#p6f2a64011f)" style="fill: none; stroke: #000000; stroke-linejoin: miter"/>
   </g>
   <g id="patch_4">
    <path d="M 167.472 125.77625 
L 227.952 125.77625 
L 227.952 68.17625 
L 167.472 68.17625 
L 167.472 125.77625 
z
" clip-path="url(#p6f2a64011f)" style="fill: none; stroke: #000000; stroke-linejoin: miter"/>
   </g>
   <g id="patch_5">
    <path d="M 240.048 125.77625 
L 300.528 125.77625 
L 300.528 68.17625 
L 240.048 68.17625 
L 240.048 125.77625 
z
" clip-path="url(#p6f2a64011f)" style="fill: none; stroke: #000000; stroke-linejoin: miter"/>
   </g>
   <g id="patch_6">
    <path d="M 22.32 201.80825 
L 82.8 201.80825 
L 82.8 144.20825 
L 22.32 144.20825 
L 22.32 201.80825 
z
" clip-path="url(#p6f2a64011f)" style="fill: none; stroke: #000000; stroke-linejoin: miter"/>
   </g>
   <g id="patch_7">
    <path d="M 94.896 201.80825 
L 155.376 201.80825 
L 155.376 144.20825 
L 94.896 144.20825 
L 94.896 201.80825 
z
" clip-path="url(#p6f2a64011f)" style="fill: none; stroke: #000000; stroke-linejoin: miter"/>
   </g>
   <g id="patch_8">
    <path d="M 167.472 201.80825 
L 227.952 201.80825 
L 227.952 144.20825 
L 167.472 144.20825 
L 167.472 201.80825 
z
" clip-path="url(#p6f2a64011f)" style="fill: none; stroke: #000000; stroke-linejoin: miter"/>
   </g>
   <g id="patch_9">
    <path d="M 240.048 201.80825 
L 300.528 201.80825 
L 300.528 144.20825 
L 240.048 144.20825 
L 240.048 201.80825 
z
" clip-path="url(#p6f2a64011f)" style="fill: none; stroke: #000000; stroke-linejoin: miter"/>
   </g>
   <g id="text_1">
    <!-- A -->
    <g transform="translate(48.797656 100.011563) scale(0.11 -0.11)">
     <defs>
      <path id="DejaVuSans-41" d="M 2188 4044 
L 1331 1722 
L 3047 1722 
L 2188 4044 
z
M 1831 4666 
L 2547 4666 
L 4325 0 
L 3669 0 
L 3244 1197 
L 1141 1197 
L 716 0 
L 50 0 
L 1831 4666 
z
" transform="scale(0.015625)"/>
     </defs>
     <use xlink:href="#DejaVuSans-41"/>
    </g>
   </g>
   <g id="text_2">
    <!-- B -->
    <g transform="translate(121.362484 100.011563) scale(0.11 -0.11)">
     <defs>
      <path id="DejaVuSans-42" d="M 1259 2228 
L 1259 519 
L 2272 519 
Q 2781 519 3026 730 
Q 3272 941 3272 1375 
Q 3272 1813 3026 2020 
Q 2781 2228 2272 2228 
L 1259 2228 
z
M 1259 4147 
L 1259 2741 
L 2194 2741 
Q 2656 2741 2882 2914 
Q 3109 3088 3109 3444 
Q 3109 3797 2882 3972 
Q 2656 4147 2194 4147 
L 1259 4147 
z
M 628 4666 
L 2241 4666 
Q 2963 4666 3353 4366 
Q 3744 4066 3744 3513 
Q 3744 3084 3544 2831 
Q 3344 2578 2956 2516 
Q 3422 2416 3680 2098 
Q 3938 1781 3938 1306 
Q 3938 681 3513 340 
Q 3088 0 2303 0 
L 628 0 
L 628 4666 
z
" transform="scale(0.015625)"/>
     </defs>
     <use xlink:href="#DejaVuSans-42"/>
    </g>
   </g>
   <g id="text_3">
    <!-- C -->
    <g transform="translate(193.871453 100.011563) scale(0.11 -0.11)">
     <defs>
      <path id="DejaVuSans-43" d="M 4122 4306 
L 4122 3641 
Q 3803 3938 3442 4084 
Q 3081 4231 2675 4231 
Q 1875 4231 1450 3742 
Q 1025 3253 1025 2328 
Q 1025 1406 1450 917 
Q 1875 428 2675 428 
Q 3081 428 3442 575 
Q 3803 722 4122 1019 
L 4122 359 
Q 3791 134 3420 21 
Q 3050 -91 2638 -91 
Q 1578 -91 968 557 
Q 359 1206 359 2328 
Q 359 3453 968 4101 
Q 1578 4750 2638 4750 
Q 3056 4750 3426 4639 
Q 3797 4528 4122 4306 
z
" transform="scale(0.015625)"/>
     </defs>
     <use xlink:href="#DejaVuSans-43"/>
    </g>
   </g>
   <g id="text_4">
    <!-- D -->
    <g transform="translate(266.053 100.011563) scale(0.11 -0.11)">
     <defs>
      <path id="DejaVuSans-44" d="M 1259 4147 
L 1259 519 
L 2022 519 
Q 2988 519 3436 956 
Q 3884 1394 3884 2338 
Q 3884 3275 3436 3711 
Q 2988 4147 2022 4147 
L 1259 4147 
z
M 628 4666 
L 1925 4666 
Q 3281 4666 3915 4102 
Q 4550 3538 4550 2338 
Q 4550 1131 3912 565 
Q 3275 0 1925 0 
L 628 0 
L 628 4666 
z
" transform="scale(0.015625)"/>
     </defs>
     <use xlink:href="#DejaVuSans-44"/>
    </g>
   </g>
   <g id="text_5">
    <!-- E -->
    <g transform="translate(49.084688 176.043563) scale(0.11 -0.11)">
     <defs>
      <path id="DejaVuSans-45" d="M 628 4666 
L 3578 4666 
L 3578 4134 
L 1259 4134 
L 1259 2753 
L 3481 2753 
L 3481 2222 
L 1259 2222 
L 1259 531 
L 3634 531 
L 3634 0 
L 628 0 
L 628 4666 
z
" transform="scale(0.015625)"/>
     </defs>
     <use xlink:href="#DejaVuSans-45"/>
    </g>
   </g>
   <g id="text_6">
    <!-- F -->
    <g transform="translate(121.972641 176.043563) scale(0.11 -0.11)">
     <defs>
      <path id="DejaVuSans-46" d="M 628 4666 
L 3309 4666 
L 3309 4134 
L 1259 4134 
L 1259 2759 
L 3109 2759 
L 3109 2228 
L 1259 2228 
L 1259 0 
L 628 0 
L 628 4666 
z
" transform="scale(0.015625)"/>
     </defs>
     <use xlink:href="#DejaVuSans-46"/>
    </g>
   </g>
   <g id="text_7">
    <!-- G -->
    <g transform="translate(193.450359 176.043563) scale(0.11 -0.11)">
     <defs>
      <path id="DejaVuSans-47" d="M 3809 666 
L 3809 1919 
L 2778 1919 
L 2778 2438 
L 4434 2438 
L 4434 434 
Q 4069 175 3628 42 
Q 3188 -91 2688 -91 
Q 1594 -91 976 548 
Q 359 1188 359 2328 
Q 359 3472 976 4111 
Q 1594 4750 2688 4750 
Q 3144 4750 3555 4637 
Q 3966 4525 4313 4306 
L 4313 3634 
Q 3963 3931 3569 4081 
Q 3175 4231 2741 4231 
Q 1884 4231 1454 3753 
Q 1025 3275 1025 2328 
Q 1025 1384 1454 906 
Q 1884 428 2741 428 
Q 3075 428 3337 486 
Q 3600 544 3809 666 
z
" transform="scale(0.015625)"/>
     </defs>
     <use xlink:href="#DejaVuSans-47"/>
    </g>
   </g>
   <g id="text_8">
    <!-- H -->
    <g transform="translate(266.151828 176.043563) scale(0.11 -0.11)">
     <defs>
      <path id="DejaVuSans-48" d="M 628 4666 
L 1259 4666 
L 1259 2753 
L 3553 2753 
L 3553 4666 
L 4184 4666 
L 4184 0 
L 3553 0 
L 3553 2222 
L 1259 2222 
L 1259 0 
L 628 0 
L 628 4666 
z
" transform="scale(0.015625)"/>
     </defs>
     <use xlink:href="#DejaVuSans-48"/>
    </g>
   </g>
   <g id="text_9">
    <!-- Položky ako rovnocenné záznamy -->
    <g transform="translate(22.32 221.6825) scale(0.09 -0.09)">
     <defs>
      <path id="DejaVuSans-50" d="M 1259 4147 
L 1259 2394 
L 2053 2394 
Q 2494 2394 2734 2622 
Q 2975 2850 2975 3272 
Q 2975 3691 2734 3919 
Q 2494 4147 2053 4147 
L 1259 4147 
z
M 628 4666 
L 2053 4666 
Q 2838 4666 3239 4311 
Q 3641 3956 3641 3272 
Q 3641 2581 3239 2228 
Q 2838 1875 2053 1875 
L 1259 1875 
L 1259 0 
L 628 0 
L 628 4666 
z
" transform="scale(0.015625)"/>
      <path id="DejaVuSans-6f" d="M 1959 3097 
Q 1497 3097 1228 2736 
Q 959 2375 959 1747 
Q 959 1119 1226 758 
Q 1494 397 1959 397 
Q 2419 397 2687 759 
Q 2956 1122 2956 1747 
Q 2956 2369 2687 2733 
Q 2419 3097 1959 3097 
z
M 1959 3584 
Q 2709 3584 3137 3096 
Q 3566 2609 3566 1747 
Q 3566 888 3137 398 
Q 2709 -91 1959 -91 
Q 1206 -91 779 398 
Q 353 888 353 1747 
Q 353 2609 779 3096 
Q 1206 3584 1959 3584 
z
" transform="scale(0.015625)"/>
      <path id="DejaVuSans-6c" d="M 603 4863 
L 1178 4863 
L 1178 0 
L 603 0 
L 603 4863 
z
" transform="scale(0.015625)"/>
      <path id="DejaVuSans-17e" d="M 353 3500 
L 3084 3500 
L 3084 2975 
L 922 459 
L 3084 459 
L 3084 0 
L 275 0 
L 275 525 
L 2438 3041 
L 353 3041 
L 353 3500 
z
M 1457 3944 
L 691 5119 
L 1126 5119 
L 1688 4353 
L 2251 5119 
L 2685 5119 
L 1919 3944 
L 1457 3944 
z
" transform="scale(0.015625)"/>
      <path id="DejaVuSans-6b" d="M 581 4863 
L 1159 4863 
L 1159 1991 
L 2875 3500 
L 3609 3500 
L 1753 1863 
L 3688 0 
L 2938 0 
L 1159 1709 
L 1159 0 
L 581 0 
L 581 4863 
z
" transform="scale(0.015625)"/>
      <path id="DejaVuSans-79" d="M 2059 -325 
Q 1816 -950 1584 -1140 
Q 1353 -1331 966 -1331 
L 506 -1331 
L 506 -850 
L 844 -850 
Q 1081 -850 1212 -737 
Q 1344 -625 1503 -206 
L 1606 56 
L 191 3500 
L 800 3500 
L 1894 763 
L 2988 3500 
L 3597 3500 
L 2059 -325 
z
" transform="scale(0.015625)"/>
      <path id="DejaVuSans-20" transform="scale(0.015625)"/>
      <path id="DejaVuSans-61" d="M 2194 1759 
Q 1497 1759 1228 1600 
Q 959 1441 959 1056 
Q 959 750 1161 570 
Q 1363 391 1709 391 
Q 2188 391 2477 730 
Q 2766 1069 2766 1631 
L 2766 1759 
L 2194 1759 
z
M 3341 1997 
L 3341 0 
L 2766 0 
L 2766 531 
Q 2569 213 2275 61 
Q 1981 -91 1556 -91 
Q 1019 -91 701 211 
Q 384 513 384 1019 
Q 384 1609 779 1909 
Q 1175 2209 1959 2209 
L 2766 2209 
L 2766 2266 
Q 2766 2663 2505 2880 
Q 2244 3097 1772 3097 
Q 1472 3097 1187 3025 
Q 903 2953 641 2809 
L 641 3341 
Q 956 3463 1253 3523 
Q 1550 3584 1831 3584 
Q 2591 3584 2966 3190 
Q 3341 2797 3341 1997 
z
" transform="scale(0.015625)"/>
      <path id="DejaVuSans-72" d="M 2631 2963 
Q 2534 3019 2420 3045 
Q 2306 3072 2169 3072 
Q 1681 3072 1420 2755 
Q 1159 2438 1159 1844 
L 1159 0 
L 581 0 
L 581 3500 
L 1159 3500 
L 1159 2956 
Q 1341 3275 1631 3429 
Q 1922 3584 2338 3584 
Q 2397 3584 2469 3576 
Q 2541 3569 2628 3553 
L 2631 2963 
z
" transform="scale(0.015625)"/>
      <path id="DejaVuSans-76" d="M 191 3500 
L 800 3500 
L 1894 563 
L 2988 3500 
L 3597 3500 
L 2284 0 
L 1503 0 
L 191 3500 
z
" transform="scale(0.015625)"/>
      <path id="DejaVuSans-6e" d="M 3513 2113 
L 3513 0 
L 2938 0 
L 2938 2094 
Q 2938 2591 2744 2837 
Q 2550 3084 2163 3084 
Q 1697 3084 1428 2787 
Q 1159 2491 1159 1978 
L 1159 0 
L 581 0 
L 581 3500 
L 1159 3500 
L 1159 2956 
Q 1366 3272 1645 3428 
Q 1925 3584 2291 3584 
Q 2894 3584 3203 3211 
Q 3513 2838 3513 2113 
z
" transform="scale(0.015625)"/>
      <path id="DejaVuSans-63" d="M 3122 3366 
L 3122 2828 
Q 2878 2963 2633 3030 
Q 2388 3097 2138 3097 
Q 1578 3097 1268 2742 
Q 959 2388 959 1747 
Q 959 1106 1268 751 
Q 1578 397 2138 397 
Q 2388 397 2633 464 
Q 2878 531 3122 666 
L 3122 134 
Q 2881 22 2623 -34 
Q 2366 -91 2075 -91 
Q 1284 -91 818 406 
Q 353 903 353 1747 
Q 353 2603 823 3093 
Q 1294 3584 2113 3584 
Q 2378 3584 2631 3529 
Q 2884 3475 3122 3366 
z
" transform="scale(0.015625)"/>
      <path id="DejaVuSans-65" d="M 3597 1894 
L 3597 1613 
L 953 1613 
Q 991 1019 1311 708 
Q 1631 397 2203 397 
Q 2534 397 2845 478 
Q 3156 559 3463 722 
L 3463 178 
Q 3153 47 2828 -22 
Q 2503 -91 2169 -91 
Q 1331 -91 842 396 
Q 353 884 353 1716 
Q 353 2575 817 3079 
Q 1281 3584 2069 3584 
Q 2775 3584 3186 3129 
Q 3597 2675 3597 1894 
z
M 3022 2063 
Q 3016 2534 2758 2815 
Q 2500 3097 2075 3097 
Q 1594 3097 1305 2825 
Q 1016 2553 972 2059 
L 3022 2063 
z
" transform="scale(0.015625)"/>
      <path id="DejaVuSans-e9" d="M 3597 1894 
L 3597 1613 
L 953 1613 
Q 991 1019 1311 708 
Q 1631 397 2203 397 
Q 2534 397 2845 478 
Q 3156 559 3463 722 
L 3463 178 
Q 3153 47 2828 -22 
Q 2503 -91 2169 -91 
Q 1331 -91 842 396 
Q 353 884 353 1716 
Q 353 2575 817 3079 
Q 1281 3584 2069 3584 
Q 2775 3584 3186 3129 
Q 3597 2675 3597 1894 
z
M 3022 2063 
Q 3016 2534 2758 2815 
Q 2500 3097 2075 3097 
Q 1594 3097 1305 2825 
Q 1016 2553 972 2059 
L 3022 2063 
z
M 2466 5119 
L 3088 5119 
L 2070 3944 
L 1591 3944 
L 2466 5119 
z
" transform="scale(0.015625)"/>
      <path id="DejaVuSans-7a" d="M 353 3500 
L 3084 3500 
L 3084 2975 
L 922 459 
L 3084 459 
L 3084 0 
L 275 0 
L 275 525 
L 2438 3041 
L 353 3041 
L 353 3500 
z
" transform="scale(0.015625)"/>
      <path id="DejaVuSans-e1" d="M 2194 1759 
Q 1497 1759 1228 1600 
Q 959 1441 959 1056 
Q 959 750 1161 570 
Q 1363 391 1709 391 
Q 2188 391 2477 730 
Q 2766 1069 2766 1631 
L 2766 1759 
L 2194 1759 
z
M 3341 1997 
L 3341 0 
L 2766 0 
L 2766 531 
Q 2569 213 2275 61 
Q 1981 -91 1556 -91 
Q 1019 -91 701 211 
Q 384 513 384 1019 
Q 384 1609 779 1909 
Q 1175 2209 1959 2209 
L 2766 2209 
L 2766 2266 
Q 2766 2663 2505 2880 
Q 2244 3097 1772 3097 
Q 1472 3097 1187 3025 
Q 903 2953 641 2809 
L 641 3341 
Q 956 3463 1253 3523 
Q 1550 3584 1831 3584 
Q 2591 3584 2966 3190 
Q 3341 2797 3341 1997 
z
M 2290 5119 
L 2912 5119 
L 1894 3944 
L 1415 3944 
L 2290 5119 
z
" transform="scale(0.015625)"/>
      <path id="DejaVuSans-6d" d="M 3328 2828 
Q 3544 3216 3844 3400 
Q 4144 3584 4550 3584 
Q 5097 3584 5394 3201 
Q 5691 2819 5691 2113 
L 5691 0 
L 5113 0 
L 5113 2094 
Q 5113 2597 4934 2840 
Q 4756 3084 4391 3084 
Q 3944 3084 3684 2787 
Q 3425 2491 3425 1978 
L 3425 0 
L 2847 0 
L 2847 2094 
Q 2847 2600 2669 2842 
Q 2491 3084 2119 3084 
Q 1678 3084 1418 2786 
Q 1159 2488 1159 1978 
L 1159 0 
L 581 0 
L 581 3500 
L 1159 3500 
L 1159 2956 
Q 1356 3278 1631 3431 
Q 1906 3584 2284 3584 
Q 2666 3584 2933 3390 
Q 3200 3197 3328 2828 
z
" transform="scale(0.015625)"/>
     </defs>
     <use xlink:href="#DejaVuSans-50"/>
     <use xlink:href="#DejaVuSans-6f" x="56.677734"/>
     <use xlink:href="#DejaVuSans-6c" x="117.859375"/>
     <use xlink:href="#DejaVuSans-6f" x="145.642578"/>
     <use xlink:href="#DejaVuSans-17e" x="206.824219"/>
     <use xlink:href="#DejaVuSans-6b" x="259.314453"/>
     <use xlink:href="#DejaVuSans-79" x="313.599609"/>
     <use xlink:href="#DejaVuSans-20" x="372.779297"/>
     <use xlink:href="#DejaVuSans-61" x="404.566406"/>
     <use xlink:href="#DejaVuSans-6b" x="465.845703"/>
     <use xlink:href="#DejaVuSans-6f" x="520.130859"/>
     <use xlink:href="#DejaVuSans-20" x="581.3125"/>
     <use xlink:href="#DejaVuSans-72" x="613.099609"/>
     <use xlink:href="#DejaVuSans-6f" x="651.962891"/>
     <use xlink:href="#DejaVuSans-76" x="713.144531"/>
     <use xlink:href="#DejaVuSans-6e" x="772.324219"/>
     <use xlink:href="#DejaVuSans-6f" x="835.703125"/>
     <use xlink:href="#DejaVuSans-63" x="896.884766"/>
     <use xlink:href="#DejaVuSans-65" x="951.865234"/>
     <use xlink:href="#DejaVuSans-6e" x="1013.388672"/>
     <use xlink:href="#DejaVuSans-6e" x="1076.767578"/>
     <use xlink:href="#DejaVuSans-e9" x="1140.146484"/>
     <use xlink:href="#DejaVuSans-20" x="1201.669922"/>
     <use xlink:href="#DejaVuSans-7a" x="1233.457031"/>
     <use xlink:href="#DejaVuSans-e1" x="1285.947266"/>
     <use xlink:href="#DejaVuSans-7a" x="1347.226562"/>
     <use xlink:href="#DejaVuSans-6e" x="1399.716797"/>
     <use xlink:href="#DejaVuSans-61" x="1463.095703"/>
     <use xlink:href="#DejaVuSans-6d" x="1524.375"/>
     <use xlink:href="#DejaVuSans-79" x="1621.787109"/>
    </g>
    <!-- (bez zjavného smeru a hierarchie) -->
    <g transform="translate(22.32 232.192531) scale(0.09 -0.09)">
     <defs>
      <path id="DejaVuSans-28" d="M 1984 4856 
Q 1566 4138 1362 3434 
Q 1159 2731 1159 2009 
Q 1159 1288 1364 580 
Q 1569 -128 1984 -844 
L 1484 -844 
Q 1016 -109 783 600 
Q 550 1309 550 2009 
Q 550 2706 781 3412 
Q 1013 4119 1484 4856 
L 1984 4856 
z
" transform="scale(0.015625)"/>
      <path id="DejaVuSans-62" d="M 3116 1747 
Q 3116 2381 2855 2742 
Q 2594 3103 2138 3103 
Q 1681 3103 1420 2742 
Q 1159 2381 1159 1747 
Q 1159 1113 1420 752 
Q 1681 391 2138 391 
Q 2594 391 2855 752 
Q 3116 1113 3116 1747 
z
M 1159 2969 
Q 1341 3281 1617 3432 
Q 1894 3584 2278 3584 
Q 2916 3584 3314 3078 
Q 3713 2572 3713 1747 
Q 3713 922 3314 415 
Q 2916 -91 2278 -91 
Q 1894 -91 1617 61 
Q 1341 213 1159 525 
L 1159 0 
L 581 0 
L 581 4863 
L 1159 4863 
L 1159 2969 
z
" transform="scale(0.015625)"/>
      <path id="DejaVuSans-6a" d="M 603 3500 
L 1178 3500 
L 1178 -63 
Q 1178 -731 923 -1031 
Q 669 -1331 103 -1331 
L -116 -1331 
L -116 -844 
L 38 -844 
Q 366 -844 484 -692 
Q 603 -541 603 -63 
L 603 3500 
z
M 603 4863 
L 1178 4863 
L 1178 4134 
L 603 4134 
L 603 4863 
z
" transform="scale(0.015625)"/>
      <path id="DejaVuSans-68" d="M 3513 2113 
L 3513 0 
L 2938 0 
L 2938 2094 
Q 2938 2591 2744 2837 
Q 2550 3084 2163 3084 
Q 1697 3084 1428 2787 
Q 1159 2491 1159 1978 
L 1159 0 
L 581 0 
L 581 4863 
L 1159 4863 
L 1159 2956 
Q 1366 3272 1645 3428 
Q 1925 3584 2291 3584 
Q 2894 3584 3203 3211 
Q 3513 2838 3513 2113 
z
" transform="scale(0.015625)"/>
      <path id="DejaVuSans-73" d="M 2834 3397 
L 2834 2853 
Q 2591 2978 2328 3040 
Q 2066 3103 1784 3103 
Q 1356 3103 1142 2972 
Q 928 2841 928 2578 
Q 928 2378 1081 2264 
Q 1234 2150 1697 2047 
L 1894 2003 
Q 2506 1872 2764 1633 
Q 3022 1394 3022 966 
Q 3022 478 2636 193 
Q 2250 -91 1575 -91 
Q 1294 -91 989 -36 
Q 684 19 347 128 
L 347 722 
Q 666 556 975 473 
Q 1284 391 1588 391 
Q 1994 391 2212 530 
Q 2431 669 2431 922 
Q 2431 1156 2273 1281 
Q 2116 1406 1581 1522 
L 1381 1569 
Q 847 1681 609 1914 
Q 372 2147 372 2553 
Q 372 3047 722 3315 
Q 1072 3584 1716 3584 
Q 2034 3584 2315 3537 
Q 2597 3491 2834 3397 
z
" transform="scale(0.015625)"/>
      <path id="DejaVuSans-75" d="M 544 1381 
L 544 3500 
L 1119 3500 
L 1119 1403 
Q 1119 906 1312 657 
Q 1506 409 1894 409 
Q 2359 409 2629 706 
Q 2900 1003 2900 1516 
L 2900 3500 
L 3475 3500 
L 3475 0 
L 2900 0 
L 2900 538 
Q 2691 219 2414 64 
Q 2138 -91 1772 -91 
Q 1169 -91 856 284 
Q 544 659 544 1381 
z
M 1991 3584 
L 1991 3584 
z
" transform="scale(0.015625)"/>
      <path id="DejaVuSans-69" d="M 603 3500 
L 1178 3500 
L 1178 0 
L 603 0 
L 603 3500 
z
M 603 4863 
L 1178 4863 
L 1178 4134 
L 603 4134 
L 603 4863 
z
" transform="scale(0.015625)"/>
      <path id="DejaVuSans-29" d="M 513 4856 
L 1013 4856 
Q 1481 4119 1714 3412 
Q 1947 2706 1947 2009 
Q 1947 1309 1714 600 
Q 1481 -109 1013 -844 
L 513 -844 
Q 928 -128 1133 580 
Q 1338 1288 1338 2009 
Q 1338 2731 1133 3434 
Q 928 4138 513 4856 
z
" transform="scale(0.015625)"/>
     </defs>
     <use xlink:href="#DejaVuSans-28"/>
     <use xlink:href="#DejaVuSans-62" x="39.013672"/>
     <use xlink:href="#DejaVuSans-65" x="102.490234"/>
     <use xlink:href="#DejaVuSans-7a" x="164.013672"/>
     <use xlink:href="#DejaVuSans-20" x="216.503906"/>
     <use xlink:href="#DejaVuSans-7a" x="248.291016"/>
     <use xlink:href="#DejaVuSans-6a" x="300.78125"/>
     <use xlink:href="#DejaVuSans-61" x="328.564453"/>
     <use xlink:href="#DejaVuSans-76" x="389.84375"/>
     <use xlink:href="#DejaVuSans-6e" x="449.023438"/>
     <use xlink:href="#DejaVuSans-e9" x="512.402344"/>
     <use xlink:href="#DejaVuSans-68" x="573.925781"/>
     <use xlink:href="#DejaVuSans-6f" x="637.304688"/>
     <use xlink:href="#DejaVuSans-20" x="698.486328"/>
     <use xlink:href="#DejaVuSans-73" x="730.273438"/>
     <use xlink:href="#DejaVuSans-6d" x="782.373047"/>
     <use xlink:href="#DejaVuSans-65" x="879.785156"/>
     <use xlink:href="#DejaVuSans-72" x="941.308594"/>
     <use xlink:href="#DejaVuSans-75" x="982.421875"/>
     <use xlink:href="#DejaVuSans-20" x="1045.800781"/>
     <use xlink:href="#DejaVuSans-61" x="1077.587891"/>
     <use xlink:href="#DejaVuSans-20" x="1138.867188"/>
     <use xlink:href="#DejaVuSans-68" x="1170.654297"/>
     <use xlink:href="#DejaVuSans-69" x="1234.033203"/>
     <use xlink:href="#DejaVuSans-65" x="1261.816406"/>
     <use xlink:href="#DejaVuSans-72" x="1323.339844"/>
     <use xlink:href="#DejaVuSans-61" x="1364.453125"/>
     <use xlink:href="#DejaVuSans-72" x="1425.732422"/>
     <use xlink:href="#DejaVuSans-63" x="1464.595703"/>
     <use xlink:href="#DejaVuSans-68" x="1519.576172"/>
     <use xlink:href="#DejaVuSans-69" x="1582.955078"/>
     <use xlink:href="#DejaVuSans-65" x="1610.738281"/>
     <use xlink:href="#DejaVuSans-29" x="1672.261719"/>
    </g>
   </g>
   <g id="text_10">
    <!-- Databázová rovnosť -->
    <g transform="translate(103.149922 16.09625) scale(0.11 -0.11)">
     <defs>
      <path id="DejaVuSans-74" d="M 1172 4494 
L 1172 3500 
L 2356 3500 
L 2356 3053 
L 1172 3053 
L 1172 1153 
Q 1172 725 1289 603 
Q 1406 481 1766 481 
L 2356 481 
L 2356 0 
L 1766 0 
Q 1100 0 847 248 
Q 594 497 594 1153 
L 594 3053 
L 172 3053 
L 172 3500 
L 594 3500 
L 594 4494 
L 1172 4494 
z
" transform="scale(0.015625)"/>
      <path id="DejaVuSans-165" d="M 1172 4494 
L 1172 3500 
L 2356 3500 
L 2356 3053 
L 1172 3053 
L 1172 1153 
Q 1172 725 1289 603 
Q 1406 481 1766 481 
L 2356 481 
L 2356 0 
L 1766 0 
Q 1100 0 847 248 
Q 594 497 594 1153 
L 594 3053 
L 172 3053 
L 172 3500 
L 594 3500 
L 594 4494 
L 1172 4494 
z
M 1768 5176 
L 2390 5176 
L 2024 4001 
L 1546 4001 
L 1768 5176 
z
" transform="scale(0.015625)"/>
     </defs>
     <use xlink:href="#DejaVuSans-44"/>
     <use xlink:href="#DejaVuSans-61" x="77.001953"/>
     <use xlink:href="#DejaVuSans-74" x="138.28125"/>
     <use xlink:href="#DejaVuSans-61" x="177.490234"/>
     <use xlink:href="#DejaVuSans-62" x="238.769531"/>
     <use xlink:href="#DejaVuSans-e1" x="302.246094"/>
     <use xlink:href="#DejaVuSans-7a" x="363.525391"/>
     <use xlink:href="#DejaVuSans-6f" x="416.015625"/>
     <use xlink:href="#DejaVuSans-76" x="477.197266"/>
     <use xlink:href="#DejaVuSans-e1" x="536.376953"/>
     <use xlink:href="#DejaVuSans-20" x="597.65625"/>
     <use xlink:href="#DejaVuSans-72" x="629.443359"/>
     <use xlink:href="#DejaVuSans-6f" x="668.306641"/>
     <use xlink:href="#DejaVuSans-76" x="729.488281"/>
     <use xlink:href="#DejaVuSans-6e" x="788.667969"/>
     <use xlink:href="#DejaVuSans-6f" x="852.046875"/>
     <use xlink:href="#DejaVuSans-73" x="913.228516"/>
     <use xlink:href="#DejaVuSans-165" x="965.328125"/>
    </g>
   </g>
  </g>
  <g id="axes_2">
   <g id="patch_10">
    <path d="M 383.04 100.43225 
C 386.247897 100.43225 389.324838 99.461194 391.593164 97.732946 
C 393.861489 96.004698 395.136 93.660362 395.136 91.21625 
C 395.136 88.772138 393.861489 86.427802 391.593164 84.699554 
C 389.324838 82.971306 386.247897 82.00025 383.04 82.00025 
C 379.832103 82.00025 376.755162 82.971306 374.486836 84.699554 
C 372.218511 86.427802 370.944 88.772138 370.944 91.21625 
C 370.944 93.660362 372.218511 96.004698 374.486836 97.732946 
C 376.755162 99.461194 379.832103 100.43225 383.04 100.43225 
L 383.04 100.43225 
z
" clip-path="url(#pc82bf917ff)" style="fill: none; stroke: #000000; stroke-linejoin: miter"/>
   </g>
   <g id="patch_11">
    <path d="M 458.64 72.78425 
C 461.847897 72.78425 464.924838 71.813194 467.193164 70.084946 
C 469.461489 68.356698 470.736 66.012362 470.736 63.56825 
C 470.736 61.124138 469.461489 58.779802 467.193164 57.051554 
C 464.924838 55.323306 461.847897 54.35225 458.64 54.35225 
C 455.432103 54.35225 452.355162 55.323306 450.086836 57.051554 
C 447.818511 58.779802 446.544 61.124138 446.544 63.56825 
C 446.544 66.012362 447.818511 68.356698 450.086836 70.084946 
C 452.355162 71.813194 455.432103 72.78425 458.64 72.78425 
L 458.64 72.78425 
z
" clip-path="url(#pc82bf917ff)" style="fill: none; stroke: #000000; stroke-linejoin: miter"/>
   </g>
   <g id="patch_12">
    <path d="M 458.64 134.99225 
C 461.847897 134.99225 464.924838 134.021194 467.193164 132.292946 
C 469.461489 130.564698 470.736 128.220362 470.736 125.77625 
C 470.736 123.332138 469.461489 120.987802 467.193164 119.259554 
C 464.924838 117.531306 461.847897 116.56025 458.64 116.56025 
C 455.432103 116.56025 452.355162 117.531306 450.086836 119.259554 
C 447.818511 120.987802 446.544 123.332138 446.544 125.77625 
C 446.544 128.220362 447.818511 130.564698 450.086836 132.292946 
C 452.355162 134.021194 455.432103 134.99225 458.64 134.99225 
L 458.64 134.99225 
z
" clip-path="url(#pc82bf917ff)" style="fill: none; stroke: #000000; stroke-linejoin: miter"/>
   </g>
   <g id="patch_13">
    <path d="M 534.24 95.82425 
C 537.447897 95.82425 540.524838 94.853194 542.793164 93.124946 
C 545.061489 91.396698 546.336 89.052362 546.336 86.60825 
C 546.336 84.164138 545.061489 81.819802 542.793164 80.091554 
C 540.524838 78.363306 537.447897 77.39225 534.24 77.39225 
C 531.032103 77.39225 527.955162 78.363306 525.686836 80.091554 
C 523.418511 81.819802 522.144 84.164138 522.144 86.60825 
C 522.144 89.052362 523.418511 91.396698 525.686836 93.124946 
C 527.955162 94.853194 531.032103 95.82425 534.24 95.82425 
L 534.24 95.82425 
z
" clip-path="url(#pc82bf917ff)" style="fill: none; stroke: #000000; stroke-linejoin: miter"/>
   </g>
   <g id="patch_14">
    <path d="M 609.84 72.78425 
C 613.047897 72.78425 616.124838 71.813194 618.393164 70.084946 
C 620.661489 68.356698 621.936 66.012362 621.936 63.56825 
C 621.936 61.124138 620.661489 58.779802 618.393164 57.051554 
C 616.124838 55.323306 613.047897 54.35225 609.84 54.35225 
C 606.632103 54.35225 603.555162 55.323306 601.286836 57.051554 
C 599.018511 58.779802 597.744 61.124138 597.744 63.56825 
C 597.744 66.012362 599.018511 68.356698 601.286836 70.084946 
C 603.555162 71.813194 606.632103 72.78425 609.84 72.78425 
L 609.84 72.78425 
z
" clip-path="url(#pc82bf917ff)" style="fill: none; stroke: #000000; stroke-linejoin: miter"/>
   </g>
   <g id="patch_15">
    <path d="M 534.24 164.94425 
C 537.447897 164.94425 540.524838 163.973194 542.793164 162.244946 
C 545.061489 160.516698 546.336 158.172362 546.336 155.72825 
C 546.336 153.284138 545.061489 150.939802 542.793164 149.211554 
C 540.524838 147.483306 537.447897 146.51225 534.24 146.51225 
C 531.032103 146.51225 527.955162 147.483306 525.686836 149.211554 
C 523.418511 150.939802 522.144 153.284138 522.144 155.72825 
C 522.144 158.172362 523.418511 160.516698 525.686836 162.244946 
C 527.955162 163.973194 531.032103 164.94425 534.24 164.94425 
L 534.24 164.94425 
z
" clip-path="url(#pc82bf917ff)" style="fill: none; stroke: #000000; stroke-linejoin: miter"/>
   </g>
   <g id="patch_16">
    <path d="M 609.84 141.90425 
C 613.047897 141.90425 616.124838 140.933194 618.393164 139.204946 
C 620.661489 137.476698 621.936 135.132362 621.936 132.68825 
C 621.936 130.244138 620.661489 127.899802 618.393164 126.171554 
C 616.124838 124.443306 613.047897 123.47225 609.84 123.47225 
C 606.632103 123.47225 603.555162 124.443306 601.286836 126.171554 
C 599.018511 127.899802 597.744 130.244138 597.744 132.68825 
C 597.744 135.132362 599.018511 137.476698 601.286836 139.204946 
C 603.555162 140.933194 606.632103 141.90425 609.84 141.90425 
L 609.84 141.90425 
z
" clip-path="url(#pc82bf917ff)" style="fill: none; stroke: #000000; stroke-linejoin: miter"/>
   </g>
   <g id="patch_17">
    <path d="M 398.16 181.07225 
C 401.367897 181.07225 404.444838 180.101194 406.713164 178.372946 
C 408.981489 176.644698 410.256 174.300362 410.256 171.85625 
C 410.256 169.412138 408.981489 167.067802 406.713164 165.339554 
C 404.444838 163.611306 401.367897 162.64025 398.16 162.64025 
C 394.952103 162.64025 391.875162 163.611306 389.606836 165.339554 
C 387.338511 167.067802 386.064 169.412138 386.064 171.85625 
C 386.064 174.300362 387.338511 176.644698 389.606836 178.372946 
C 391.875162 180.101194 394.952103 181.07225 398.16 181.07225 
L 398.16 181.07225 
z
" clip-path="url(#pc82bf917ff)" style="fill: none; stroke: #000000; stroke-linejoin: miter"/>
   </g>
   <g id="patch_18">
    <path d="M 384.918003 90.529438 
Q 420.840828 77.391947 455.713634 64.638464 
" clip-path="url(#pc82bf917ff)" style="fill: none; stroke: #000000; stroke-linecap: round"/>
    <path d="M 450.381323 64.033105 
L 455.713634 64.638464 
L 452.029961 68.541097 
" clip-path="url(#pc82bf917ff)" style="fill: none; stroke: #000000; stroke-linecap: round"/>
   </g>
   <g id="patch_19">
    <path d="M 384.860325 92.048398 
Q 420.842777 108.497519 455.808406 124.481807 
" clip-path="url(#pc82bf917ff)" style="fill: none; stroke: #000000; stroke-linecap: round"/>
    <path d="M 452.440752 120.303421 
L 455.808406 124.481807 
L 450.445105 124.668899 
" clip-path="url(#pc82bf917ff)" style="fill: none; stroke: #000000; stroke-linecap: round"/>
   </g>
   <g id="patch_20">
    <path d="M 460.554917 64.151844 
Q 496.441765 75.088788 531.259143 85.699798 
" clip-path="url(#pc82bf917ff)" style="fill: none; stroke: #000000; stroke-linecap: round"/>
    <path d="M 527.367296 82.00473 
L 531.259143 85.699798 
L 525.96798 86.596235 
" clip-path="url(#pc82bf917ff)" style="fill: none; stroke: #000000; stroke-linecap: round"/>
   </g>
   <g id="patch_21">
    <path d="M 460.414182 124.857055 
Q 496.438288 106.193137 531.469683 88.043538 
" clip-path="url(#pc82bf917ff)" style="fill: none; stroke: #000000; stroke-linecap: round"/>
    <path d="M 526.103674 88.120659 
L 531.469683 88.043538 
L 528.311775 92.382618 
" clip-path="url(#pc82bf917ff)" style="fill: none; stroke: #000000; stroke-linecap: round"/>
   </g>
   <g id="patch_22">
    <path d="M 536.154917 86.024656 
Q 572.041765 75.087712 606.859143 64.476702 
" clip-path="url(#pc82bf917ff)" style="fill: none; stroke: #000000; stroke-linecap: round"/>
    <path d="M 601.56798 63.580265 
L 606.859143 64.476702 
L 602.967296 68.17177 
" clip-path="url(#pc82bf917ff)" style="fill: none; stroke: #000000; stroke-linecap: round"/>
   </g>
   <g id="patch_23">
    <path d="M 460.499546 126.512984 
Q 496.440366 140.752395 531.341758 154.579994 
" clip-path="url(#pc82bf917ff)" style="fill: none; stroke: #000000; stroke-linecap: round"/>
    <path d="M 527.763237 150.580721 
L 531.341758 154.579994 
L 525.995226 155.043247 
" clip-path="url(#pc82bf917ff)" style="fill: none; stroke: #000000; stroke-linecap: round"/>
   </g>
   <g id="patch_24">
    <path d="M 536.154917 155.144656 
Q 572.041765 144.207712 606.859143 133.596702 
" clip-path="url(#pc82bf917ff)" style="fill: none; stroke: #000000; stroke-linecap: round"/>
    <path d="M 601.56798 132.700265 
L 606.859143 133.596702 
L 602.967296 137.29177 
" clip-path="url(#pc82bf917ff)" style="fill: none; stroke: #000000; stroke-linecap: round"/>
   </g>
   <g id="patch_25">
    <path d="M 399.750996 170.644063 
Q 428.399361 148.816737 456.158406 127.666989 
" clip-path="url(#pc82bf917ff)" style="fill: none; stroke: #000000; stroke-linecap: round"/>
    <path d="M 450.88583 128.66696 
L 456.158406 127.666989 
L 453.794837 132.485032 
" clip-path="url(#pc82bf917ff)" style="fill: none; stroke: #000000; stroke-linecap: round"/>
   </g>
   <g id="text_11">
    <!-- A -->
    <g transform="translate(379.277656 94.251563) scale(0.11 -0.11)">
     <use xlink:href="#DejaVuSans-41"/>
    </g>
   </g>
   <g id="text_12">
    <!-- B -->
    <g transform="translate(454.866484 66.603563) scale(0.11 -0.11)">
     <use xlink:href="#DejaVuSans-42"/>
    </g>
   </g>
   <g id="text_13">
    <!-- C -->
    <g transform="translate(454.799453 128.811563) scale(0.11 -0.11)">
     <use xlink:href="#DejaVuSans-43"/>
    </g>
   </g>
   <g id="text_14">
    <!-- D -->
    <g transform="translate(530.005 89.643563) scale(0.11 -0.11)">
     <use xlink:href="#DejaVuSans-44"/>
    </g>
   </g>
   <g id="text_15">
    <!-- E -->
    <g transform="translate(606.364688 66.603563) scale(0.11 -0.11)">
     <use xlink:href="#DejaVuSans-45"/>
    </g>
   </g>
   <g id="text_16">
    <!-- F -->
    <g transform="translate(531.076641 158.763563) scale(0.11 -0.11)">
     <use xlink:href="#DejaVuSans-46"/>
    </g>
   </g>
   <g id="text_17">
    <!-- G -->
    <g transform="translate(605.578359 135.723563) scale(0.11 -0.11)">
     <use xlink:href="#DejaVuSans-47"/>
    </g>
   </g>
   <g id="text_18">
    <!-- H -->
    <g transform="translate(394.023828 174.891563) scale(0.11 -0.11)">
     <use xlink:href="#DejaVuSans-48"/>
    </g>
   </g>
   <g id="text_19">
    <!-- Vzťahy so smerom: vplyv, reakcia, -->
    <g transform="translate(358.848 222.1145) scale(0.09 -0.09)">
     <defs>
      <path id="DejaVuSans-56" d="M 1831 0 
L 50 4666 
L 709 4666 
L 2188 738 
L 3669 4666 
L 4325 4666 
L 2547 0 
L 1831 0 
z
" transform="scale(0.015625)"/>
      <path id="DejaVuSans-3a" d="M 750 794 
L 1409 794 
L 1409 0 
L 750 0 
L 750 794 
z
M 750 3309 
L 1409 3309 
L 1409 2516 
L 750 2516 
L 750 3309 
z
" transform="scale(0.015625)"/>
      <path id="DejaVuSans-70" d="M 1159 525 
L 1159 -1331 
L 581 -1331 
L 581 3500 
L 1159 3500 
L 1159 2969 
Q 1341 3281 1617 3432 
Q 1894 3584 2278 3584 
Q 2916 3584 3314 3078 
Q 3713 2572 3713 1747 
Q 3713 922 3314 415 
Q 2916 -91 2278 -91 
Q 1894 -91 1617 61 
Q 1341 213 1159 525 
z
M 3116 1747 
Q 3116 2381 2855 2742 
Q 2594 3103 2138 3103 
Q 1681 3103 1420 2742 
Q 1159 2381 1159 1747 
Q 1159 1113 1420 752 
Q 1681 391 2138 391 
Q 2594 391 2855 752 
Q 3116 1113 3116 1747 
z
" transform="scale(0.015625)"/>
      <path id="DejaVuSans-2c" d="M 750 794 
L 1409 794 
L 1409 256 
L 897 -744 
L 494 -744 
L 750 256 
L 750 794 
z
" transform="scale(0.015625)"/>
     </defs>
     <use xlink:href="#DejaVuSans-56"/>
     <use xlink:href="#DejaVuSans-7a" x="68.408203"/>
     <use xlink:href="#DejaVuSans-165" x="120.898438"/>
     <use xlink:href="#DejaVuSans-61" x="160.107422"/>
     <use xlink:href="#DejaVuSans-68" x="221.386719"/>
     <use xlink:href="#DejaVuSans-79" x="284.765625"/>
     <use xlink:href="#DejaVuSans-20" x="343.945312"/>
     <use xlink:href="#DejaVuSans-73" x="375.732422"/>
     <use xlink:href="#DejaVuSans-6f" x="427.832031"/>
     <use xlink:href="#DejaVuSans-20" x="489.013672"/>
     <use xlink:href="#DejaVuSans-73" x="520.800781"/>
     <use xlink:href="#DejaVuSans-6d" x="572.900391"/>
     <use xlink:href="#DejaVuSans-65" x="670.3125"/>
     <use xlink:href="#DejaVuSans-72" x="731.835938"/>
     <use xlink:href="#DejaVuSans-6f" x="770.699219"/>
     <use xlink:href="#DejaVuSans-6d" x="831.880859"/>
     <use xlink:href="#DejaVuSans-3a" x="929.292969"/>
     <use xlink:href="#DejaVuSans-20" x="962.984375"/>
     <use xlink:href="#DejaVuSans-76" x="994.771484"/>
     <use xlink:href="#DejaVuSans-70" x="1053.951172"/>
     <use xlink:href="#DejaVuSans-6c" x="1117.427734"/>
     <use xlink:href="#DejaVuSans-79" x="1145.210938"/>
     <use xlink:href="#DejaVuSans-76" x="1204.390625"/>
     <use xlink:href="#DejaVuSans-2c" x="1263.570312"/>
     <use xlink:href="#DejaVuSans-20" x="1295.357422"/>
     <use xlink:href="#DejaVuSans-72" x="1327.144531"/>
     <use xlink:href="#DejaVuSans-65" x="1366.007812"/>
     <use xlink:href="#DejaVuSans-61" x="1427.53125"/>
     <use xlink:href="#DejaVuSans-6b" x="1488.810547"/>
     <use xlink:href="#DejaVuSans-63" x="1546.720703"/>
     <use xlink:href="#DejaVuSans-69" x="1601.701172"/>
     <use xlink:href="#DejaVuSans-61" x="1629.484375"/>
     <use xlink:href="#DejaVuSans-2c" x="1690.763672"/>
    </g>
    <!-- škola, séria, udalosť… -->
    <g transform="translate(358.848 232.192531) scale(0.09 -0.09)">
     <defs>
      <path id="DejaVuSans-161" d="M 2834 3397 
L 2834 2853 
Q 2591 2978 2328 3040 
Q 2066 3103 1784 3103 
Q 1356 3103 1142 2972 
Q 928 2841 928 2578 
Q 928 2378 1081 2264 
Q 1234 2150 1697 2047 
L 1894 2003 
Q 2506 1872 2764 1633 
Q 3022 1394 3022 966 
Q 3022 478 2636 193 
Q 2250 -91 1575 -91 
Q 1294 -91 989 -36 
Q 684 19 347 128 
L 347 722 
Q 666 556 975 473 
Q 1284 391 1588 391 
Q 1994 391 2212 530 
Q 2431 669 2431 922 
Q 2431 1156 2273 1281 
Q 2116 1406 1581 1522 
L 1381 1569 
Q 847 1681 609 1914 
Q 372 2147 372 2553 
Q 372 3047 722 3315 
Q 1072 3584 1716 3584 
Q 2034 3584 2315 3537 
Q 2597 3491 2834 3397 
z
M 1501 3944 
L 736 5119 
L 1170 5119 
L 1733 4353 
L 2295 5119 
L 2729 5119 
L 1964 3944 
L 1501 3944 
z
M 1720 3584 
L 1720 3584 
z
" transform="scale(0.015625)"/>
      <path id="DejaVuSans-64" d="M 2906 2969 
L 2906 4863 
L 3481 4863 
L 3481 0 
L 2906 0 
L 2906 525 
Q 2725 213 2448 61 
Q 2172 -91 1784 -91 
Q 1150 -91 751 415 
Q 353 922 353 1747 
Q 353 2572 751 3078 
Q 1150 3584 1784 3584 
Q 2172 3584 2448 3432 
Q 2725 3281 2906 2969 
z
M 947 1747 
Q 947 1113 1208 752 
Q 1469 391 1925 391 
Q 2381 391 2643 752 
Q 2906 1113 2906 1747 
Q 2906 2381 2643 2742 
Q 2381 3103 1925 3103 
Q 1469 3103 1208 2742 
Q 947 2381 947 1747 
z
" transform="scale(0.015625)"/>
      <path id="DejaVuSans-2026" d="M 2869 794 
L 3531 794 
L 3531 0 
L 2869 0 
L 2869 794 
z
M 4997 794 
L 5663 794 
L 5663 0 
L 4997 0 
L 4997 794 
z
M 738 794 
L 1403 794 
L 1403 0 
L 738 0 
L 738 794 
z
" transform="scale(0.015625)"/>
     </defs>
     <use xlink:href="#DejaVuSans-161"/>
     <use xlink:href="#DejaVuSans-6b" x="52.099609"/>
     <use xlink:href="#DejaVuSans-6f" x="106.384766"/>
     <use xlink:href="#DejaVuSans-6c" x="167.566406"/>
     <use xlink:href="#DejaVuSans-61" x="195.349609"/>
     <use xlink:href="#DejaVuSans-2c" x="256.628906"/>
     <use xlink:href="#DejaVuSans-20" x="288.416016"/>
     <use xlink:href="#DejaVuSans-73" x="320.203125"/>
     <use xlink:href="#DejaVuSans-e9" x="372.302734"/>
     <use xlink:href="#DejaVuSans-72" x="433.826172"/>
     <use xlink:href="#DejaVuSans-69" x="474.939453"/>
     <use xlink:href="#DejaVuSans-61" x="502.722656"/>
     <use xlink:href="#DejaVuSans-2c" x="564.001953"/>
     <use xlink:href="#DejaVuSans-20" x="595.789062"/>
     <use xlink:href="#DejaVuSans-75" x="627.576172"/>
     <use xlink:href="#DejaVuSans-64" x="690.955078"/>
     <use xlink:href="#DejaVuSans-61" x="754.431641"/>
     <use xlink:href="#DejaVuSans-6c" x="815.710938"/>
     <use xlink:href="#DejaVuSans-6f" x="843.494141"/>
     <use xlink:href="#DejaVuSans-73" x="904.675781"/>
     <use xlink:href="#DejaVuSans-165" x="956.775391"/>
     <use xlink:href="#DejaVuSans-2026" x="995.984375"/>
    </g>
   </g>
   <g id="text_20">
    <!-- Sieť vzťahov (orientovaný graf) -->
    <g transform="translate(418.157891 16.09625) scale(0.11 -0.11)">
     <defs>
      <path id="DejaVuSans-53" d="M 3425 4513 
L 3425 3897 
Q 3066 4069 2747 4153 
Q 2428 4238 2131 4238 
Q 1616 4238 1336 4038 
Q 1056 3838 1056 3469 
Q 1056 3159 1242 3001 
Q 1428 2844 1947 2747 
L 2328 2669 
Q 3034 2534 3370 2195 
Q 3706 1856 3706 1288 
Q 3706 609 3251 259 
Q 2797 -91 1919 -91 
Q 1588 -91 1214 -16 
Q 841 59 441 206 
L 441 856 
Q 825 641 1194 531 
Q 1563 422 1919 422 
Q 2459 422 2753 634 
Q 3047 847 3047 1241 
Q 3047 1584 2836 1778 
Q 2625 1972 2144 2069 
L 1759 2144 
Q 1053 2284 737 2584 
Q 422 2884 422 3419 
Q 422 4038 858 4394 
Q 1294 4750 2059 4750 
Q 2388 4750 2728 4690 
Q 3069 4631 3425 4513 
z
" transform="scale(0.015625)"/>
      <path id="DejaVuSans-fd" d="M 2059 -325 
Q 1816 -950 1584 -1140 
Q 1353 -1331 966 -1331 
L 506 -1331 
L 506 -850 
L 844 -850 
Q 1081 -850 1212 -737 
Q 1344 -625 1503 -206 
L 1606 56 
L 191 3500 
L 800 3500 
L 1894 763 
L 2988 3500 
L 3597 3500 
L 2059 -325 
z
M 2330 5119 
L 2952 5119 
L 1934 3944 
L 1455 3944 
L 2330 5119 
z
" transform="scale(0.015625)"/>
      <path id="DejaVuSans-67" d="M 2906 1791 
Q 2906 2416 2648 2759 
Q 2391 3103 1925 3103 
Q 1463 3103 1205 2759 
Q 947 2416 947 1791 
Q 947 1169 1205 825 
Q 1463 481 1925 481 
Q 2391 481 2648 825 
Q 2906 1169 2906 1791 
z
M 3481 434 
Q 3481 -459 3084 -895 
Q 2688 -1331 1869 -1331 
Q 1566 -1331 1297 -1286 
Q 1028 -1241 775 -1147 
L 775 -588 
Q 1028 -725 1275 -790 
Q 1522 -856 1778 -856 
Q 2344 -856 2625 -561 
Q 2906 -266 2906 331 
L 2906 616 
Q 2728 306 2450 153 
Q 2172 0 1784 0 
Q 1141 0 747 490 
Q 353 981 353 1791 
Q 353 2603 747 3093 
Q 1141 3584 1784 3584 
Q 2172 3584 2450 3431 
Q 2728 3278 2906 2969 
L 2906 3500 
L 3481 3500 
L 3481 434 
z
" transform="scale(0.015625)"/>
      <path id="DejaVuSans-66" d="M 2375 4863 
L 2375 4384 
L 1825 4384 
Q 1516 4384 1395 4259 
Q 1275 4134 1275 3809 
L 1275 3500 
L 2222 3500 
L 2222 3053 
L 1275 3053 
L 1275 0 
L 697 0 
L 697 3053 
L 147 3053 
L 147 3500 
L 697 3500 
L 697 3744 
Q 697 4328 969 4595 
Q 1241 4863 1831 4863 
L 2375 4863 
z
" transform="scale(0.015625)"/>
     </defs>
     <use xlink:href="#DejaVuSans-53"/>
     <use xlink:href="#DejaVuSans-69" x="63.476562"/>
     <use xlink:href="#DejaVuSans-65" x="91.259766"/>
     <use xlink:href="#DejaVuSans-165" x="152.783203"/>
     <use xlink:href="#DejaVuSans-20" x="191.992188"/>
     <use xlink:href="#DejaVuSans-76" x="223.779297"/>
     <use xlink:href="#DejaVuSans-7a" x="282.958984"/>
     <use xlink:href="#DejaVuSans-165" x="335.449219"/>
     <use xlink:href="#DejaVuSans-61" x="374.658203"/>
     <use xlink:href="#DejaVuSans-68" x="435.9375"/>
     <use xlink:href="#DejaVuSans-6f" x="499.316406"/>
     <use xlink:href="#DejaVuSans-76" x="560.498047"/>
     <use xlink:href="#DejaVuSans-20" x="619.677734"/>
     <use xlink:href="#DejaVuSans-28" x="651.464844"/>
     <use xlink:href="#DejaVuSans-6f" x="690.478516"/>
     <use xlink:href="#DejaVuSans-72" x="751.660156"/>
     <use xlink:href="#DejaVuSans-69" x="792.773438"/>
     <use xlink:href="#DejaVuSans-65" x="820.556641"/>
     <use xlink:href="#DejaVuSans-6e" x="882.080078"/>
     <use xlink:href="#DejaVuSans-74" x="945.458984"/>
     <use xlink:href="#DejaVuSans-6f" x="984.667969"/>
     <use xlink:href="#DejaVuSans-76" x="1045.849609"/>
     <use xlink:href="#DejaVuSans-61" x="1105.029297"/>
     <use xlink:href="#DejaVuSans-6e" x="1166.308594"/>
     <use xlink:href="#DejaVuSans-fd" x="1229.6875"/>
     <use xlink:href="#DejaVuSans-20" x="1288.867188"/>
     <use xlink:href="#DejaVuSans-67" x="1320.654297"/>
     <use xlink:href="#DejaVuSans-72" x="1384.130859"/>
     <use xlink:href="#DejaVuSans-61" x="1425.244141"/>
     <use xlink:href="#DejaVuSans-66" x="1486.523438"/>
     <use xlink:href="#DejaVuSans-29" x="1521.728516"/>
    </g>
   </g>
  </g>
 </g>
 <defs>
  <clipPath id="p6f2a64011f">
   <rect x="7.2" y="22.09625" width="302.4" height="230.4"/>
  </clipPath>
  <clipPath id="pc82bf917ff">
   <rect x="352.8" y="22.09625" width="302.4" height="230.4"/>
  </clipPath>
 </defs>
</svg>
